<svg xmlns="http://www.w3.org/2000/svg">
  <symbol viewBox="0 0 496 512" id="icon-github"><path d="M165.9 397.4c0 2-2.3 3.6-5.2 3.6-3.3.3-5.6-1.3-5.6-3.6 0-2 2.3-3.6 5.2-3.6 3-.3 5.6 1.3 5.6 3.6zm-31.1-4.5c-.7 2 1.3 4.3 4.3 4.9 2.6 1 5.6 0 6.2-2s-1.3-4.3-4.3-5.2c-2.6-.7-5.5.3-6.2 2.3zm44.2-1.7c-2.9.7-4.9 2.6-4.6 4.9.3 2 2.9 3.3 5.9 2.6 2.9-.7 4.9-2.6 4.6-4.6-.3-1.9-3-3.2-5.9-2.9zM244.8 8C106.1 8 0 113.3 0 252c0 110.9 69.8 205.8 169.5 239.2 12.8 2.3 17.3-5.6 17.3-12.1 0-6.2-.3-40.4-.3-61.4 0 0-70 15-84.7-29.8 0 0-11.4-29.1-27.8-36.6 0 0-22.9-15.7 1.6-15.4 0 0 24.9 2 38.6 25.8 21.9 38.6 58.6 27.5 72.9 20.9 2.3-16 8.8-27.1 16-33.7-55.9-6.2-112.3-14.3-112.3-110.5 0-27.5 7.6-41.3 23.6-58.9-2.6-6.5-11.1-33.3 2.6-67.9 20.9-6.5 69 27 69 27 20-5.6 41.5-8.5 62.8-8.5s42.8 2.9 62.8 8.5c0 0 48.1-33.6 69-27 13.7 34.7 5.2 61.4 2.6 67.9 16 17.7 25.8 31.5 25.8 58.9 0 96.5-58.9 104.2-114.8 110.5 9.2 7.9 17 22.9 17 46.4 0 33.7-.3 75.4-.3 83.6 0 6.5 4.6 14.4 17.3 12.1C428.2 457.8 496 362.9 496 252 496 113.3 383.5 8 244.8 8zM97.2 352.9c-1.3 1-1 3.3.7 5.2 1.6 1.6 3.9 2.3 5.2 1 1.3-1 1-3.3-.7-5.2-1.6-1.6-3.9-2.3-5.2-1zm-10.8-8.1c-.7 1.3.3 2.9 2.3 3.9 1.6 1 3.6.7 4.3-.7.7-1.3-.3-2.9-2.3-3.9-2-.6-3.6-.3-4.3.7zm32.4 35.6c-1.6 1.3-1 4.3 1.3 6.2 2.3 2.3 5.2 2.6 6.5 1 1.3-1.3.7-4.3-1.3-6.2-2.2-2.3-5.2-2.6-6.5-1zm-11.4-14.7c-1.6 1-1.6 3.6 0 5.9 1.6 2.3 4.3 3.3 5.6 2.3 1.6-1.3 1.6-3.9 0-6.2-1.4-2.3-4-3.3-5.6-2z"/>
  </symbol>
  <symbol viewBox="0 0 230 230" id="fizz-logo">
    <style>
      .st0{
        fill: #bc00bf;
        mix-blend-mode: multiply;
      }
      .st1 {
        fill: #fff;
        mix-blend-mode: multiply;
      }
      .st2 {
        fill: #fff;
      }
      .st17{
        fill: rgba(255,255,255,.8);
      }
    </style>
    <g id="Bottlecap_1_">
      <g id="Cap">
        <linearGradient id="SVGID_1_" gradientUnits="userSpaceOnUse" x1="10.168" y1="68.326" x2="219.832" y2="161.674">
          <stop offset="0" stop-color="#e6e6e6"/>
          <stop offset="1" stop-color="#666"/>
        </linearGradient>
        <path d="M229.9 120.5c.1-1.8.1-3.6.1-5.5s-.1-3.7-.1-5.5c-10.8-5.7-11.6-11.8-2.7-19.9-.8-3.4-1.7-6.8-2.8-10.2-11.8-2.4-14.1-7.9-7.6-17.9-1.6-3-3.3-6-5.2-8.9-12 .8-15.6-3.9-11.7-15.2-2.3-2.5-4.7-4.9-7.2-7.2-11.4 3.8-16 .2-15.2-11.7-2.9-1.9-5.8-3.6-8.9-5.2-10.1 6.6-15.5 4.2-17.9-7.6-3.3-1.1-6.7-2-10.2-2.8-8.2 8.9-14.3 8.1-19.9-2.7-1.9-.1-3.8-.2-5.6-.2s-3.7.1-5.5.1c-5.7 10.8-11.8 11.6-19.9 2.7-3.4.8-6.8 1.7-10.2 2.8-2.4 11.8-7.9 14.1-17.9 7.6-3 1.6-6 3.3-8.9 5.2.8 12-3.9 15.6-15.2 11.7-2.5 2.3-4.9 4.7-7.2 7.2 3.8 11.4.2 16-11.7 15.2-1.9 2.9-3.6 5.8-5.2 8.9 6.6 10.1 4.2 15.5-7.6 17.9-1.1 3.3-2 6.7-2.8 10.2 8.9 8.2 8.1 14.3-2.7 19.9-.1 1.9-.2 3.8-.2 5.6s.1 3.7.1 5.5c10.8 5.7 11.6 11.8 2.7 19.9.8 3.4 1.7 6.8 2.8 10.2 11.8 2.4 14.1 7.9 7.6 17.9 1.6 3 3.3 6 5.2 8.9 12-.8 15.6 3.9 11.7 15.2 2.3 2.5 4.7 4.9 7.2 7.2 11.4-3.8 16-.2 15.2 11.7 2.9 1.9 5.8 3.6 8.9 5.2 10.1-6.6 15.5-4.2 17.9 7.6 3.3 1.1 6.7 2 10.2 2.8 8.2-8.9 14.3-8.1 19.9 2.7 1.8.1 3.6.1 5.5.1s3.7-.1 5.5-.1c5.7-10.8 11.8-11.6 19.9-2.7 3.4-.8 6.8-1.7 10.2-2.8 2.4-11.8 7.9-14.1 17.9-7.6 3-1.6 6-3.3 8.9-5.2-.8-12 3.9-15.6 15.2-11.7 2.5-2.3 4.9-4.7 7.2-7.2-3.8-11.4-.2-16 11.7-15.2 1.9-2.9 3.6-5.8 5.2-8.9-6.6-10.1-4.2-15.5 7.6-17.9 1.1-3.3 2-6.7 2.8-10.2-8.8-8.1-7.9-14.2 2.9-19.9z" fill="url(#SVGID_1_)"/>
        <linearGradient id="SVGID_2_" gradientUnits="userSpaceOnUse" x1="10.168" y1="68.326" x2="219.832" y2="161.674">
          <stop offset="0" stop-color="gray"/>
          <stop offset="1" stop-color="#ccc"/>
        </linearGradient>
        <path d="M230 115c0-1.8-.1-3.7-.1-5.5-1.2-.6-2.3-1.3-3.2-1.9l-32.3-3 29-10.8c1-1.3 2.2-2.7 3.8-4.2-.8-3.4-1.7-6.8-2.8-10.2-.9-.2-1.7-.4-2.5-.6l-33 5.6 25.2-17.9c.6-1.5 1.5-3.2 2.7-5-1.6-3-3.3-6-5.2-8.9-1.2.1-2.3.1-3.3.1l-29.8 13.6 20.2-24.4c.2-1.4.6-2.9 1.2-4.5-2.3-2.5-4.7-4.9-7.2-7.2-1.6.6-3.1.9-4.5 1.2l-24.4 20.2 13.6-29.8c0-1 0-2.1.1-3.3-2.9-1.9-5.8-3.6-8.9-5.2-1.8 1.2-3.5 2.1-5 2.7l-17.9 25.2 5.6-33c-.2-.8-.4-1.6-.6-2.5-3.3-1.1-6.7-2-10.2-2.8-1.5 1.6-2.9 2.9-4.2 3.8l-10.8 29-3-32.3c-.6-1-1.3-2-1.9-3.2-1.9-.1-3.8-.2-5.6-.2s-3.7.1-5.5.1c-.6 1.2-1.3 2.3-1.9 3.2l-3 32.3-10.8-29c-1.3-1-2.7-2.2-4.2-3.8-3.4.8-6.8 1.7-10.2 2.8-.2.9-.4 1.7-.6 2.5l5.6 33-17.9-25.2c-1.5-.6-3.2-1.5-5-2.7-3 1.6-6 3.3-8.9 5.2.1 1.2.1 2.3.1 3.3l13.6 29.8-24.4-20.2c-1.4-.2-2.9-.6-4.5-1.2-2.5 2.3-4.9 4.7-7.2 7.2.6 1.6.9 3.1 1.2 4.5l20.2 24.4-29.9-13.5c-1 0-2.1 0-3.3-.1-1.9 2.9-3.6 5.8-5.2 8.9 1.2 1.8 2.1 3.5 2.7 5l25.2 17.9-33-5.6c-.8.2-1.6.4-2.5.6-1.1 3.3-2 6.7-2.8 10.2 1.6 1.5 2.9 2.9 3.8 4.2l29 10.8-32.3 3c-1 .6-2 1.3-3.2 1.9 0 1.8-.1 3.7-.1 5.5s.1 3.7.1 5.5c1.2.6 2.3 1.3 3.2 1.9l32.3 3-29 10.8c-1 1.3-2.2 2.7-3.8 4.2.8 3.4 1.7 6.8 2.8 10.2.9.2 1.7.4 2.5.6l33-5.6-25.2 17.9c-.6 1.5-1.5 3.2-2.7 5 1.6 3 3.3 6 5.2 8.9 1.2-.1 2.3-.1 3.3-.1l29.8-13.6-20.2 24.4c-.2 1.4-.6 2.9-1.2 4.5 2.3 2.5 4.7 4.9 7.2 7.2 1.6-.6 3.1-.9 4.5-1.2l24.4-20.2-13.6 29.8c0 1 0 2.1-.1 3.3 2.9 1.9 5.8 3.6 8.9 5.2 1.8-1.2 3.5-2.1 5-2.7l17.9-25.2-5.6 33c.2.8.4 1.6.6 2.5 3.3 1.1 6.7 2 10.2 2.8 1.5-1.6 2.9-2.9 4.2-3.8l10.8-29 3 32.3c.6 1 1.3 2 1.9 3.2 1.8.1 3.6.1 5.5.1s3.7-.1 5.5-.1c.6-1.2 1.3-2.3 1.9-3.2l3-32.3 10.8 29c1.3 1 2.7 2.2 4.2 3.8 3.4-.8 6.8-1.7 10.2-2.8.2-.9.4-1.7.6-2.5l-5.6-33 17.9 25.2c1.5.6 3.2 1.5 5 2.7 3-1.6 6-3.3 8.9-5.2-.1-1.2-.1-2.3-.1-3.3l-13.6-29.8 24.4 20.2c1.4.2 2.9.6 4.5 1.2 2.5-2.3 4.9-4.7 7.2-7.2-.6-1.6-.9-3.1-1.2-4.5l-20.2-24.4 29.8 13.6c1 0 2.1 0 3.3.1 1.9-2.9 3.6-5.8 5.2-8.9-1.2-1.8-2.1-3.5-2.7-5l-25.2-17.9 33 5.6c.8-.2 1.6-.4 2.5-.6 1.1-3.3 2-6.7 2.8-10.2-1.6-1.5-2.9-2.9-3.8-4.2l-29-10.8 32.3-3c1-.6 2-1.3 3.2-1.9.2-1.8.3-3.7.3-5.5z" fill="url(#SVGID_2_)"/>
        <linearGradient id="SVGID_3_" gradientUnits="userSpaceOnUse" x1="115" y1="0" x2="115" y2="230">
          <stop offset="0" stop-color="#fff"/>
          <stop offset="1" stop-color="#4d4d4d"/>
        </linearGradient>
        <path d="M229.9 111.5l-65.4-3 62.3-19.9c-.5-2.3-1.1-4.5-1.8-6.7l-63.9 14 55.1-35.3c-1.1-2.1-2.3-4.1-3.5-6l-58.1 30 44.1-48.4c-1.6-1.7-3.2-3.3-4.9-4.9l-48.4 44.1 30-58.1c-2-1.2-4-2.4-6-3.5l-35.3 55.1 14-63.9c-2.2-.7-4.5-1.3-6.7-1.8l-19.9 62.3-3-65.4c-1.2-.1-2.3-.1-3.5-.1s-2.3 0-3.5.1l-3 65.4L88.6 3.1c-2.3.5-4.5 1.1-6.7 1.8l14 63.9-35.3-55.1c-2.1 1.1-4.1 2.3-6 3.5l30 58.1-48.4-44c-1.7 1.6-3.3 3.2-4.9 4.9l44.1 48.4-58.1-30c-1.2 2-2.4 4-3.5 6l55.1 35.3L5 81.9c-.7 2.2-1.3 4.5-1.8 6.7l62.3 19.9-65.4 3c0 1.2-.1 2.3-.1 3.5s0 2.3.1 3.5l65.4 3-62.4 19.9c.5 2.3 1.1 4.5 1.8 6.7l63.9-14-55.1 35.3c1.1 2.1 2.3 4.1 3.5 6l58.1-30-44.1 48.4c1.6 1.7 3.2 3.3 4.9 4.9l48.4-44.1-30 58.1c2 1.2 4 2.4 6 3.5l35.3-55.1-14 63.9c2.2.7 4.5 1.3 6.7 1.8l19.9-62.3 3 65.4c1.2 0 2.3.1 3.5.1s2.3 0 3.5-.1l3-65.4 19.9 62.3c2.3-.5 4.5-1.1 6.7-1.8l-14-63.9 35.3 55.1c2.1-1.1 4.1-2.3 6-3.5l-30-58.1 48.4 44.1c1.7-1.6 3.3-3.2 4.9-4.9l-44.1-48.4 58.1 30c1.2-2 2.4-4 3.5-6L161 134.1l63.9 14c.7-2.2 1.3-4.5 1.8-6.7l-62.3-19.9 65.4-3c0-1.2.1-2.3.1-3.5s.1-2.3 0-3.5z" fill="url(#SVGID_3_)"/>
        <linearGradient id="SVGID_4_" gradientUnits="userSpaceOnUse" x1="38.986" y1="38.986" x2="191.014" y2="191.014">
          <stop offset="0" stop-color="#fff"/>
          <stop offset="1" stop-color="#333"/>
        </linearGradient>
        <circle cx="115" cy="115" r="107.5" fill="url(#SVGID_4_)"/>
        <linearGradient id="SVGID_5_" gradientUnits="userSpaceOnUse" x1="39.79" y1="39.79" x2="190.21" y2="190.21">
          <stop offset="0" stop-color="#fff"/>
          <stop offset="1" stop-color="#414141"/>
        </linearGradient>
        <circle cx="115" cy="115" r="106.4" fill="url(#SVGID_5_)"/>
        <linearGradient id="SVGID_6_" gradientUnits="userSpaceOnUse" x1="40.593" y1="40.593" x2="189.407" y2="189.407">
          <stop offset="0" stop-color="#fff"/>
          <stop offset="1" stop-color="#4f4f4f"/>
        </linearGradient>
        <circle cx="115" cy="115" r="105.2" fill="url(#SVGID_6_)"/>
        <linearGradient id="SVGID_7_" gradientUnits="userSpaceOnUse" x1="41.397" y1="41.397" x2="188.603" y2="188.603">
          <stop offset="0" stop-color="#fff"/>
          <stop offset="1" stop-color="#5d5d5d"/>
        </linearGradient>
        <circle cx="115" cy="115" r="104.1" fill="url(#SVGID_7_)"/>
        <linearGradient id="SVGID_8_" gradientUnits="userSpaceOnUse" x1="42.2" y1="42.2" x2="187.8" y2="187.8">
          <stop offset="0" stop-color="#fff"/>
          <stop offset="1" stop-color="#6b6b6b"/>
        </linearGradient>
        <circle cx="115" cy="115" r="103" fill="url(#SVGID_8_)"/>
        <linearGradient id="SVGID_9_" gradientUnits="userSpaceOnUse" x1="43.004" y1="43.004" x2="186.996" y2="186.996">
          <stop offset="0" stop-color="#fff"/>
          <stop offset="1" stop-color="#797979"/>
        </linearGradient>
        <circle cx="115" cy="115" r="101.8" fill="url(#SVGID_9_)"/>
        <linearGradient id="SVGID_10_" gradientUnits="userSpaceOnUse" x1="43.807" y1="43.807" x2="186.193" y2="186.193">
          <stop offset="0" stop-color="#fff"/>
          <stop offset="1" stop-color="#868686"/>
        </linearGradient>
        <circle cx="115" cy="115" r="100.7" fill="url(#SVGID_10_)"/>
        <linearGradient id="SVGID_11_" gradientUnits="userSpaceOnUse" x1="44.611" y1="44.611" x2="185.389" y2="185.389">
          <stop offset="0" stop-color="#fff"/>
          <stop offset="1" stop-color="#949494"/>
        </linearGradient>
        <circle cx="115" cy="115" r="99.5" fill="url(#SVGID_11_)"/>
        <linearGradient id="SVGID_12_" gradientUnits="userSpaceOnUse" x1="45.414" y1="45.414" x2="184.586" y2="184.586">
          <stop offset="0" stop-color="#fff"/>
          <stop offset="1" stop-color="#a2a2a2"/>
        </linearGradient>
        <circle cx="115" cy="115" r="98.4" fill="url(#SVGID_12_)"/>
        <linearGradient id="SVGID_13_" gradientUnits="userSpaceOnUse" x1="46.218" y1="46.218" x2="183.782" y2="183.782">
          <stop offset="0" stop-color="#fff"/>
          <stop offset="1" stop-color="#b0b0b0"/>
        </linearGradient>
        <circle cx="115" cy="115" r="97.3" fill="url(#SVGID_13_)"/>
        <linearGradient id="SVGID_14_" gradientUnits="userSpaceOnUse" x1="47.021" y1="47.021" x2="182.979" y2="182.979">
          <stop offset="0" stop-color="#fff"/>
          <stop offset="1" stop-color="#bebebe"/>
        </linearGradient>
        <circle cx="115" cy="115" r="96.1" fill="url(#SVGID_14_)"/>
        <linearGradient id="SVGID_15_" gradientUnits="userSpaceOnUse" x1="47.825" y1="47.825" x2="182.175" y2="182.175">
          <stop offset="0" stop-color="#fff"/>
          <stop offset="1" stop-color="#ccc"/>
        </linearGradient>
        <circle cx="115" cy="115" r="95" fill="url(#SVGID_15_)"/>
        <path id="Cap_Color" class="st0" d="M13.2 61.5c1.6-3 3.3-6 5.2-8.9 12 .8 15.6-3.9 11.7-15.2 2.3-2.5 4.7-4.9 7.2-7.2 11.4 3.8 16 .2 15.2-11.7 2.9-1.9 5.8-3.6 8.9-5.2 10.1 6.6 15.5 4.2 17.9-7.6 3.3-1.1 6.7-2 10.2-2.8 8.2 8.9 14.3 8.1 19.9-2.7 1.8-.1 3.6-.1 5.5-.1s3.7.1 5.5.1c5.7 10.8 11.8 11.6 19.9 2.7 3.4.8 6.8 1.7 10.2 2.8 2.4 11.8 7.9 14.1 17.9 7.6 3 1.6 6 3.3 8.9 5.2-.8 12 3.9 15.6 15.2 11.7 2.5 2.3 4.9 4.7 7.2 7.2-3.8 11.4-.2 16 11.7 15.2 1.9 2.9 3.6 5.8 5.2 8.9-2.8 4.4-4 7.9-3.5 10.6H16.7c.5-2.8-.6-6.3-3.5-10.6zm200.4 95.6H16.5c1 2.9-.1 6.6-3.2 11.4 1.6 3 3.3 6 5.2 8.9 12-.8 15.6 3.9 11.7 15.2 2.3 2.5 4.7 4.9 7.2 7.2 11.4-3.8 16-.2 15.2 11.7 2.9 1.9 5.8 3.6 8.9 5.2 10.1-6.6 15.5-4.2 17.9 7.6 3.3 1.1 6.7 2 10.2 2.8 8.2-8.9 14.3-8.1 19.9 2.7 1.8.1 3.6.1 5.5.1s3.7-.1 5.5-.1c5.7-10.8 11.8-11.6 19.9-2.7 3.4-.8 6.8-1.7 10.2-2.8 2.4-11.8 7.9-14.1 17.9-7.6 3-1.6 6-3.3 8.9-5.2-.8-12 3.9-15.6 15.2-11.7 2.5-2.3 4.9-4.7 7.2-7.2-3.8-11.4-.2-16 11.7-15.2 1.9-2.9 3.6-5.8 5.2-8.9-3-4.8-4.1-8.5-3.1-11.4z"/>
        <linearGradient id="Highlight_1_" gradientUnits="userSpaceOnUse" x1="44.289" y1="44.289" x2="117.5" y2="117.5">
          <stop offset="0" stop-color="#fff" stop-opacity=".6"/>
          <stop offset="1" stop-color="#fff" stop-opacity="0"/>
        </linearGradient>
        <path id="Highlight" d="M20 120C20 64.8 64.8 20 120 20c26.3 0 50.3 10.2 68.2 26.8C169.9 27.3 143.9 15 115 15 59.8 15 15 59.8 15 115c0 28.9 12.3 54.9 31.8 73.2C30.2 170.3 20 146.3 20 120z" fill="url(#Highlight_1_)"/>
      </g>
  </g>
  <g id="Label">
    <path id="Design_System" class="st17" d="M53.206 164.251h4.223c.748 0 1.449.15 2.104.451a5.736 5.736 0 011.718 1.202c.49.5.876 1.083 1.158 1.747.281.665.422 1.362.422 2.089 0 .719-.138 1.411-.415 2.075a5.57 5.57 0 01-1.15 1.755 5.686 5.686 0 01-1.718 1.209 5.012 5.012 0 01-2.119.451h-4.223v-10.979zm2.854 8.561h.655c.495 0 .936-.077 1.325-.233.388-.155.716-.369.983-.641.267-.271.47-.594.611-.968.141-.374.211-.784.211-1.231a3.37 3.37 0 00-.219-1.223 2.793 2.793 0 00-.619-.975 2.84 2.84 0 00-.983-.641 3.508 3.508 0 00-1.311-.234h-.653v6.146zm14.836-6.145h-3.392v1.835h3.203v2.417h-3.203v1.892h3.392v2.417H64.65V164.25h6.246v2.417zm8.082.394a3.501 3.501 0 00-.932-.561 2.461 2.461 0 00-.902-.183c-.369 0-.67.087-.903.262s-.349.403-.349.685c0 .195.058.354.175.48.116.127.269.236.459.328.189.092.403.173.641.24.238.068.473.141.706.218.932.311 1.614.726 2.046 1.245.432.52.648 1.196.648 2.031a3.96 3.96 0 01-.284 1.529 3.179 3.179 0 01-.83 1.172c-.364.326-.811.578-1.34.758s-1.128.269-1.798.269c-1.388 0-2.674-.412-3.858-1.238l1.223-2.3c.427.379.849.66 1.267.845.417.185.83.276 1.238.276.466 0 .813-.107 1.041-.32.228-.213.342-.456.342-.728a.991.991 0 00-.087-.43.93.93 0 00-.291-.335 2.312 2.312 0 00-.532-.283 16.717 16.717 0 00-.794-.291c-.369-.117-.73-.245-1.085-.386a3.379 3.379 0 01-.946-.561 2.597 2.597 0 01-.67-.881c-.17-.354-.255-.803-.255-1.347s.09-1.036.27-1.478c.179-.442.432-.821.757-1.136a3.362 3.362 0 011.194-.735c.47-.175.997-.262 1.579-.262.544 0 1.112.075 1.704.225.592.15 1.16.371 1.704.662l-1.138 2.23zm6.232-2.81v10.978h-2.854v-10.978h2.854zm7.644 4.834h5.664c0 .583-.024 1.112-.073 1.587a5.67 5.67 0 01-.291 1.324 5.269 5.269 0 01-.83 1.522 4.85 4.85 0 01-1.23 1.106 5.756 5.756 0 01-1.55.677 6.703 6.703 0 01-1.776.233c-.855 0-1.634-.141-2.337-.423a5.26 5.26 0 01-1.813-1.186 5.368 5.368 0 01-1.179-1.834c-.282-.714-.423-1.502-.423-2.366 0-.854.139-1.638.415-2.351a5.157 5.157 0 011.18-1.827 5.353 5.353 0 011.842-1.18c.718-.281 1.519-.421 2.403-.421 1.145 0 2.15.247 3.014.742.864.495 1.548 1.261 2.053 2.3l-2.708 1.121c-.253-.602-.58-1.034-.983-1.296s-.861-.393-1.376-.393c-.428 0-.816.08-1.165.24-.349.16-.648.389-.895.685a3.269 3.269 0 00-.582 1.071 4.263 4.263 0 00-.214 1.397c0 .466.06.898.182 1.296.121.398.304.742.546 1.034.242.29.543.517.902.676.359.16.776.241 1.252.241.281 0 .554-.031.816-.094s.497-.166.706-.306c.209-.141.381-.323.517-.546.136-.223.228-.495.277-.816h-2.344v-2.213zm7.469 6.144v-10.978h2.854l5.271 6.713v-6.713h2.839v10.978h-2.839l-5.271-6.713v6.713h-2.854zm24.243-8.168a3.513 3.513 0 00-.931-.561 2.462 2.462 0 00-.903-.183c-.369 0-.669.087-.903.262a.817.817 0 00-.349.685.68.68 0 00.175.48c.117.127.269.236.459.328.189.092.402.173.641.24.238.068.472.141.706.218.931.311 1.614.726 2.046 1.245.432.52.648 1.196.648 2.031 0 .563-.094 1.073-.284 1.529a3.167 3.167 0 01-.83 1.172c-.364.326-.81.578-1.34.758-.529.18-1.128.269-1.798.269-1.388 0-2.674-.412-3.858-1.238l1.223-2.3c.428.379.849.66 1.267.845.417.185.83.276 1.238.276.466 0 .813-.107 1.041-.32.228-.213.342-.456.342-.728a.991.991 0 00-.087-.43.94.94 0 00-.291-.335 2.324 2.324 0 00-.531-.283 16.717 16.717 0 00-.794-.291c-.369-.117-.73-.245-1.085-.386a3.379 3.379 0 01-.946-.561c-.277-.233-.501-.526-.67-.881s-.255-.803-.255-1.347.09-1.036.27-1.478c.179-.442.432-.821.757-1.136a3.353 3.353 0 011.194-.735c.47-.175.997-.262 1.579-.262.543 0 1.111.075 1.703.225.592.15 1.16.371 1.704.662l-1.138 2.23zm6.043 2.897l-4.004-5.707h3.407l2.038 2.999 2.024-2.999h3.407l-4.018 5.707v5.271h-2.854v-5.271zm13.397-2.897a3.517 3.517 0 00-.932-.561 2.462 2.462 0 00-.903-.183c-.369 0-.669.087-.903.262a.817.817 0 00-.349.685.68.68 0 00.175.48c.117.127.27.236.459.328.189.092.403.173.641.24.238.068.473.141.706.218.932.311 1.614.726 2.046 1.245.432.52.648 1.196.648 2.031a3.96 3.96 0 01-.283 1.529 3.19 3.19 0 01-.83 1.172 3.845 3.845 0 01-1.34.758c-.529.18-1.128.269-1.799.269-1.388 0-2.674-.412-3.859-1.238l1.223-2.3c.428.379.85.66 1.268.845.416.185.83.276 1.237.276.466 0 .813-.107 1.041-.32.229-.213.342-.456.342-.728a.991.991 0 00-.087-.43.924.924 0 00-.292-.335 2.324 2.324 0 00-.531-.283 16.634 16.634 0 00-.793-.291c-.37-.117-.731-.245-1.085-.386a3.384 3.384 0 01-.947-.561 2.597 2.597 0 01-.67-.881c-.17-.354-.254-.803-.254-1.347s.089-1.036.269-1.478c.179-.442.432-.821.757-1.136a3.353 3.353 0 011.194-.735c.47-.175.997-.262 1.579-.262.543 0 1.111.075 1.704.225.591.15 1.159.371 1.703.662l-1.135 2.23zm7.614-.394v8.562h-2.854v-8.562h-2.344v-2.416h7.542v2.416h-2.344zm9.857 0h-3.393v1.835h3.203v2.417h-3.203v1.892h3.393v2.417h-6.246V164.25h6.246v2.417zm1.557 8.562l1.864-10.978h2.825l2.199 5.853 2.184-5.853h2.826l1.864 10.978h-2.84l-.947-6.319-2.592 6.319h-1.136l-2.461-6.319-.946 6.319h-2.84z"/>
    <g class="st17">  
      <path id="Provi_Logo" d="M119.996 51.249l-1.4 9.6c-.2.5-1.5 1.2-3.5 1.2-2.1 0-3.6-.8-3.8-1.6H108.696c0 .3 0 .6.1.9.4 2 3 3.5 6.2 3.5 3.5 0 6.2-1.7 6.3-4l1.6-11.5c-.6 1-2.9 2-2.9 1.9m-4.9-10.4c-4.8 0-8.4 2.2-8.4 5.1 0 .3 1.8 12.7 1.8 12.7.1.7.2 1 .2 1h2.5s-.9-8-1.3-10.8l-.4-2.6-.1-.5c.3-.9 2.5-2.2 5.7-2.2 3.3 0 5.5 1.3 5.6 2.2v.1c0 .1 0 .2-.1.3-.2.5-.8 1-1.7 1.4-.8.3-2 .7-3.9.7-1.7 0-3.1-.4-3.9-.7-.2-.1-.5-.1-.5-.1l.4 2.9c1.4.5 2.7.6 4 .6 2.4 0 4.5-.5 6.1-1.5 1.1-.7 1.8-1.5 2.1-2.5v-.1l.1-.9c.2-2.9-3.4-5.1-8.2-5.1" opacity=".8" fill-rule="evenodd" clip-rule="evenodd" fill="#fff"/>
        <path id="star_3_" class="st18" d="M129.044 50.426l-2.783 2.712 3.741-1.054.957 3.767.958-3.767 3.741 1.054-2.784-2.712 2.784-2.713-3.741 1.054-.958-3.767-.957 3.767-3.741-1.054z"/>
        <path id="star_2_" class="st18" d="M140.529 56.637l-2.784 2.713 3.741-1.054.958 3.767.957-3.767 3.742 1.054-2.784-2.713 2.784-2.713-3.742 1.055-.957-3.767-.958 3.767-3.741-1.055z"/>
        <path id="star" class="st18" d="M101.101 50.426l2.784 2.712-3.741-1.054-.958 3.767-.957-3.767-3.742 1.054 2.784-2.712-2.784-2.713 3.742 1.054.957-3.767.958 3.767 3.741-1.054z"/>
        <path id="star_1_" class="st18" d="M89.617 56.637L92.4 59.35l-3.741-1.054-.957 3.767-.958-3.767-3.741 1.054 2.784-2.713-2.784-2.713 3.741 1.055.958-3.767.957 3.767 3.741-1.055z"/>
    </g>
    <path id="Trade_Mark_Reg" class="st17" d="M90.512 197.182l2.866.799-.215.77-.986-.274-1.606 5.767-.863-.241 1.606-5.766-1.017-.283.215-.772zm3.27.9l1.172.277c.484.115.817.316.999.604.229.371.27.863.123 1.479-.112.474-.281.835-.508 1.084-.226.248-.494.373-.804.371l.452 3.5-.902-.215-.442-3.52-.768 3.232-.89-.211 1.568-6.601zm.196 3.135c.345.082.607.061.788-.065.18-.126.315-.378.405-.757.049-.205.075-.385.08-.537s-.015-.281-.057-.389a.603.603 0 00-.2-.26.97.97 0 00-.347-.149l-.149-.036-.52 2.193zm4.319-2.127l.699.136.141 6.938-.889-.172.001-1.348-1.32-.255-.506 1.249-.863-.166 2.737-6.382zm-.044 4.835l.007-1.1c.008-.747.049-1.54.123-2.376-.117.393-.247.787-.39 1.186-.143.397-.301.818-.477 1.262l-.329.822 1.066.206zm2.597-4.357l1.113.164c.339.05.619.129.84.238.204.104.376.262.518.473.211.314.337.703.379 1.166.043.447.006 1.074-.112 1.88-.109.739-.257 1.333-.444 1.782-.182.43-.424.742-.725.938-.371.244-.979.305-1.825.18l-.73-.107.986-6.714zm.033 6.055c.551.081.943-.031 1.178-.338.24-.305.432-.938.573-1.9.152-1.035.166-1.76.04-2.176-.125-.415-.432-.658-.918-.73l-.113-.016-.76 5.16zm4.003-5.49l2.417.252-.08.77-1.509-.158-.223 2.138 1.338.14-.081.77-1.337-.14-.24 2.304 1.508.156-.08.77-2.417-.252.704-6.75zm5.248.463l.781.029.498 2.787a25.94 25.94 0 01.287 2.144l.018-.116a.657.657 0 01.011-.059l.155-.772.141-.733.119-.484.629-2.699.791.028.379 6.804-.874-.031-.07-2.308-.005-.304a4.702 4.702 0 01.001-.211l-.007-.91.009-.836-.001-.037-.004-.076-.027.135-.078.42c-.023.119-.044.219-.062.301l-.137.615-.053.23-.677 2.939-.615-.021-.443-2.576a19.964 19.964 0 01-.159-1.031c-.044-.35-.083-.715-.116-1.098l-.432 4.664-.861-.031.802-6.763zm5.606.118l.712-.011 1.564 6.76-.905.016-.276-1.319-1.344.022-.238 1.326-.879.015 1.366-6.809zm.951 4.74l-.219-1.077a29.974 29.974 0 01-.368-2.35c-.034.407-.081.82-.138 1.238-.058.419-.126.863-.207 1.334l-.153.872 1.085-.017zm1.645-4.792l1.203-.064c.497-.027.873.071 1.129.295.324.291.503.752.537 1.384.026.485-.033.88-.18 1.183s-.369.498-.666.584l1.424 3.229-.926.05-1.422-3.251.18 3.318-.912.049-.367-6.777zm1.076 2.952c.354-.019.6-.114.736-.286.138-.172.195-.452.175-.842a2.689 2.689 0 00-.075-.537.984.984 0 00-.164-.355.594.594 0 00-.266-.193.974.974 0 00-.375-.045l-.153.008.122 2.25zm2.59-3.17l.91-.088.316 3.272.951-3.395.919-.09-1.013 3.4 1.771 3.344-1.023.099-1.605-3.358.336 3.481-.909.088-.653-6.753zm5.451-.616l1.188-.191c.491-.08.876-.021 1.155.174.352.254.579.693.68 1.318.078.48.061.879-.053 1.195s-.314.533-.601.651l1.759 3.058-.915.148-1.759-3.08.531 3.279-.902.146-1.083-6.698zm1.383 2.822c.35-.057.584-.178.702-.363s.146-.471.085-.855c-.034-.208-.078-.383-.133-.525s-.121-.256-.201-.338-.175-.136-.285-.162a.943.943 0 00-.377-.006l-.151.024.36 2.225zm2.258-3.435l2.382-.484.154.758-1.485.302.428 2.106 1.318-.269.154.758-1.318.269.461 2.27 1.486-.303.154.758-2.381.484-1.353-6.649zm5.416 2.098l1.613-.399.062.256c.318 1.283.42 2.176.307 2.682-.107.516-.465.849-1.074.999-.628.155-1.139.011-1.533-.435-.392-.446-.736-1.273-1.036-2.482-.343-1.383-.425-2.338-.249-2.867.167-.498.533-.816 1.1-.957.432-.106.795-.086 1.088.062.297.149.572.448.828.896l-.742.55c-.08-.164-.157-.3-.232-.406a.99.99 0 00-.217-.238c-.141-.106-.32-.134-.536-.08-.296.073-.452.306-.47.696-.014.408.102 1.105.346 2.092.247.998.471 1.66.668 1.984.199.326.451.45.758.374.282-.069.449-.243.5-.522.051-.296.003-.74-.144-1.331l-.044-.179-.033-.133-.772.191-.188-.753zm3.615 1.674a.503.503 0 01.404.054.52.52 0 01.256.324.525.525 0 01-.047.412.547.547 0 01-.542.27.534.534 0 01-.456-.389.545.545 0 01.385-.671z"/>
    <path id="Provi_Bottling_Co" class="st17" d="M52.38 50.81l.873-.829c.421-.399.828-.584 1.221-.553.395.033.813.282 1.255.748.622.654.831 1.259.628 1.816-.11.271-.349.58-.714.926l2.073 2.183-.663.629-4.673-4.92zm2.724 1.541c.274-.26.411-.495.41-.705-.001-.213-.137-.463-.41-.75-.278-.293-.533-.459-.764-.498-.231-.039-.456.045-.675.253l-.093.088 1.532 1.612zm-.007-4.089l.907-.792c.375-.328.732-.482 1.071-.463.434.03.859.283 1.275.759.32.366.516.714.587 1.042s.016.619-.165.87l3.111 1.665-.698.61-3.122-1.684 2.186 2.502-.688.601-4.464-5.11zm2.666 1.662c.267-.233.402-.46.404-.68.002-.22-.125-.477-.381-.771-.139-.159-.269-.284-.39-.376s-.238-.152-.349-.179a.59.59 0 00-.328.012.971.971 0 00-.323.195l-.116.101 1.483 1.698zm5.155-3.542c.747.937 1.173 1.686 1.278 2.246.105.56-.087 1.036-.577 1.426-.516.411-1.048.488-1.596.232-.539-.249-1.23-.902-2.074-1.961-.752-.944-1.181-1.694-1.287-2.25-.105-.561.09-1.039.587-1.435.445-.354.896-.465 1.354-.332.305.091.639.299 1.002.624.343.297.78.781 1.313 1.45zm-.689.672c-.732-.918-1.259-1.495-1.581-1.73-.324-.236-.612-.253-.867-.051s-.313.477-.177.821c.14.345.546.939 1.218 1.782.619.777 1.092 1.281 1.418 1.512.316.213.596.222.841.026.241-.192.3-.456.177-.793-.119-.334-.463-.856-1.029-1.567zm-1.104-3.776l.728-.53 1.805 1.784.323.325.697.71.32.332.261.272.232.244-.088-.159a2.691 2.691 0 01-.063-.117l-.367-.706-.483-.925-.119-.234a10.048 10.048 0 01-.094-.193l-1.119-2.284.689-.501 2.917 6.269-.586.427-5.053-4.714zm3.254-2.335l.755-.516 3.826 5.604-.755.515-3.826-5.603zm3.348-2.214l1.06-.643c.829-.503 1.556-.24 2.181.789.239.393.362.718.37.973.008.256-.095.515-.309.779.389-.065.7-.035.934.091.235.121.47.376.706.764.646 1.064.514 1.874-.398 2.427l-1.022.62-3.522-5.8zm2.287 2.107c.303-.184.471-.382.503-.594.028-.219-.07-.514-.295-.885-.38-.626-.795-.802-1.247-.528l-.06.036-.034.021c-.02.012-.032.021-.035.027l1.168 1.923zm1.564 2.577c.32-.194.5-.398.54-.61.039-.212-.051-.499-.27-.859-.225-.371-.446-.591-.664-.662-.216-.074-.481-.016-.794.174l1.188 1.957zm4.158-5.181c.574 1.052.865 1.863.873 2.433.007.57-.264 1.005-.814 1.306-.579.316-1.116.301-1.612-.045-.488-.338-1.057-1.101-1.706-2.289-.579-1.059-.872-1.872-.881-2.438-.008-.57.268-1.007.825-1.312.499-.272.963-.304 1.391-.094.285.142.578.404.88.786.286.351.634.902 1.044 1.653zm-.795.544c-.563-1.031-.983-1.689-1.259-1.976-.278-.289-.56-.355-.845-.2-.285.156-.391.416-.316.778.079.365.376 1.02.894 1.966.476.872.854 1.449 1.136 1.733.274.264.549.321.825.17.27-.147.374-.397.311-.75-.062-.35-.31-.924-.746-1.721zm-.392-3.931l2.669-1.315.354.717-.919.453 2.645 5.369-.804.396-2.645-5.369-.946.466-.354-.717zm2.768-1.362l2.712-1.223.329.729-.934.421 2.462 5.456-.817.369-2.461-5.456-.961.434-.33-.73zm3.302-1.468l.846-.347 2.284 5.561 1.382-.567.294.715-2.228.915-2.578-6.277zm2.865-1.151l.855-.323 2.399 6.347-.855.323-2.399-6.347zm1.956-.739l.808-.273 1.729 2.273c.494.64.976 1.338 1.445 2.095-.237-.473-.44-.906-.61-1.297a14.546 14.546 0 01-.434-1.12l-.811-2.398.87-.294 2.172 6.428-.812.274-1.948-2.565c-.18-.239-.357-.487-.532-.743s-.348-.529-.52-.817c-.019-.037-.043-.081-.075-.132l-.108-.177.083.178.057.127.267.638.314.78a8.17 8.17 0 01.136.376l.993 2.786-.853.289-2.171-6.428zm6.619 1.27l1.597-.455.072.253c.362 1.271.495 2.161.399 2.669-.09.519-.436.865-1.039 1.037-.623.177-1.139.05-1.548-.382-.407-.433-.78-1.248-1.122-2.445-.39-1.37-.506-2.322-.348-2.857.149-.502.504-.833 1.065-.993.428-.122.792-.114 1.089.023.302.14.588.428.859.866l-.722.576a3.062 3.062 0 00-.246-.398 1.028 1.028 0 00-.226-.23c-.145-.102-.324-.123-.539-.062-.293.083-.441.321-.446.712 0 .408.14 1.101.418 2.079.282.989.527 1.643.737 1.961.209.318.466.434.771.347.279-.079.439-.259.481-.539.04-.298-.023-.74-.19-1.326l-.05-.178-.038-.131-.765.218-.209-.745zm6.293-4.722l.173.803c-.253-.062-.457-.077-.612-.043-.212.045-.382.137-.512.274s-.22.325-.272.564c-.052.239-.065.53-.041.875.024.344.086.743.184 1.199.353 1.638.948 2.367 1.788 2.187.146-.032.312-.115.499-.251l.176.821a1.478 1.478 0 01-.683.335c-1.343.289-2.251-.663-2.723-2.857-.255-1.186-.281-2.103-.078-2.752.204-.649.643-1.046 1.319-1.192.25-.055.51-.042.782.037zm4.798 2.662c.201 1.181.211 2.042.033 2.584-.179.542-.577.865-1.195.97-.65.11-1.153-.079-1.51-.569-.352-.478-.641-1.384-.867-2.719-.202-1.19-.215-2.054-.039-2.592.179-.542.581-.866 1.208-.972.56-.095 1.009.026 1.346.364.223.227.415.57.576 1.03.155.426.305 1.061.448 1.904zm-.928.255c-.196-1.158-.379-1.917-.547-2.278-.169-.364-.414-.518-.734-.464-.32.055-.504.266-.552.633-.044.37.024 1.086.205 2.149.166.979.336 1.648.51 2.008.173.339.415.482.724.43.303-.051.483-.254.539-.608.054-.351.007-.974-.145-1.87zm2.556 1.762a.507.507 0 01.392.112c.119.091.188.21.208.358a.522.522 0 01-.106.4.545.545 0 01-.358.203.542.542 0 11-.136-1.073zm9.264-6.398l.032.821c-.238-.105-.437-.155-.595-.148a.966.966 0 00-.552.182 1.173 1.173 0 00-.365.509 3.145 3.145 0 00-.191.854 8.787 8.787 0 00-.025 1.212c.066 1.675.527 2.495 1.385 2.461.149-.006.327-.06.535-.162l.033.839a1.483 1.483 0 01-.73.213c-1.373.054-2.104-1.041-2.191-3.283-.047-1.212.085-2.12.397-2.725s.813-.92 1.504-.947c.254-.009.509.049.763.174zm.979-.149l.914.015-.043 2.654 1.34.021.044-2.654.913.015-.109 6.785-.915-.015.055-3.357-1.34-.021-.054 3.357-.914-.015.109-6.785zm4.303.075l.913.035-.261 6.78-.913-.035.261-6.78zm4.724.379l-.057.82c-.226-.13-.418-.201-.575-.211a.958.958 0 00-.568.122 1.168 1.168 0 00-.418.467c-.115.215-.21.491-.281.829a8.563 8.563 0 00-.155 1.203c-.115 1.672.255 2.538 1.111 2.597.149.01.332-.024.549-.104l-.058.837a1.48 1.48 0 01-.749.133c-1.371-.094-1.979-1.261-1.825-3.5.084-1.21.313-2.099.688-2.666.375-.567.908-.827 1.598-.779.254.016.501.101.74.252zm2.135.107l.707.08.688 6.905-.9-.101-.105-1.343-1.336-.15-.405 1.286-.874-.098 2.225-6.579zm.338 4.823l-.08-1.097a29.677 29.677 0 01-.064-2.377c-.087.4-.185.804-.296 1.211-.11.408-.235.84-.375 1.296l-.264.846 1.079.121zm3.616-1.049l1.641.259-.041.26c-.206 1.305-.46 2.168-.761 2.589-.3.433-.76.601-1.379.503-.64-.101-1.054-.434-1.243-.998-.188-.563-.184-1.46.011-2.69.223-1.406.518-2.319.887-2.738.347-.393.809-.544 1.384-.453.44.069.767.229.979.479.215.253.353.636.414 1.146l-.897.219c-.01-.183-.028-.337-.056-.465s-.062-.229-.107-.304c-.089-.153-.242-.248-.463-.282-.301-.047-.535.105-.704.458-.171.37-.336 1.058-.494 2.062-.161 1.016-.213 1.712-.157 2.089.057.376.24.589.553.639.287.045.508-.05.664-.287.162-.253.29-.681.386-1.283l.028-.182.021-.135-.786-.124.12-.762zm5.81 1.456c-.244 1.173-.548 1.979-.912 2.418-.363.439-.853.595-1.466.467-.646-.135-1.045-.495-1.198-1.08-.153-.574-.092-1.523.185-2.848.246-1.182.55-1.991.91-2.428.363-.439.856-.594 1.479-.464.557.116.93.393 1.12.83.125.292.178.682.16 1.169-.01.454-.103 1.099-.278 1.936zm-.957-.1c.239-1.15.347-1.924.321-2.321-.024-.4-.195-.633-.514-.7-.318-.066-.567.063-.745.388-.177.329-.374 1.021-.595 2.076-.202.972-.288 1.658-.257 2.056.037.379.21.601.517.665.301.062.542-.061.724-.37.181-.308.364-.905.549-1.794zm1.509 2.588l.657.383-1.414 2.11-.418-.234 1.175-2.259zm4.965-4.722l.877.257-1.904 6.512-.877-.256 1.904-6.513zm1.985.591l.869.281-1.851 5.72 1.422.46-.238.736-2.292-.741 2.09-6.456zm2.942.972l.86.311-2.046 5.653 1.405.508-.264.727-2.264-.819 2.309-6.38zM149.289 31l.851.335-2.489 6.312-.851-.335L149.289 31zm1.964.775l.782.341-.249 2.845a24.592 24.592 0 01-.338 2.523c.143-.51.282-.966.42-1.37.138-.403.281-.777.432-1.121l1.012-2.32.842.367-2.712 6.22-.786-.343.283-3.209a16.488 16.488 0 01.269-1.862c.012-.04.022-.089.034-.148l.038-.204-.058.188-.044.132-.231.652-.291.789a5.158 5.158 0 01-.062.16c-.025.062-.056.133-.089.21l-1.139 2.73-.825-.36 2.712-6.22zm5.508 6.495c-.533 1.074-1.03 1.777-1.493 2.11s-.975.36-1.536.082c-.591-.293-.887-.742-.887-1.348-.004-.593.296-1.497.896-2.709.537-1.081 1.034-1.788 1.493-2.12.463-.333.979-.358 1.548-.076.51.253.801.615.875 1.086.047.314 0 .705-.14 1.172-.124.436-.376 1.037-.756 1.803zm-.902-.339c.521-1.053.821-1.774.896-2.165.078-.393-.029-.662-.32-.807-.292-.145-.564-.082-.819.188-.253.273-.619.893-1.099 1.859-.441.89-.697 1.531-.768 1.924-.06.376.052.634.332.773.276.137.54.078.794-.176.253-.25.581-.782.984-1.596zm3.381-2.358l.804.435-3.229 5.967-.804-.435 3.229-5.967zm3.726 2.264l-.448.771c-.141-.312-.308-.524-.5-.636a.754.754 0 00-.637-.076c-.213.062-.387.21-.522.443a1.119 1.119 0 00-.167.61c.003.106.023.254.062.442.037.188.093.42.166.697.132.514.187.924.165 1.229-.018.298-.124.614-.318.949-.264.453-.608.752-1.035.897-.423.138-.834.09-1.233-.143-.337-.196-.571-.455-.701-.779l.455-.782c.162.369.357.62.588.754.216.125.426.151.631.079.204-.072.378-.231.521-.477.123-.213.188-.431.192-.655a2.705 2.705 0 00-.039-.396 5.364 5.364 0 00-.118-.539 10.946 10.946 0 01-.192-.813 2.89 2.89 0 01-.061-.569c.008-.293.11-.61.308-.949.267-.458.597-.752.991-.883.398-.131.8-.079 1.205.157.28.163.509.386.687.669zm-1.809 5.574l.506.568-2 1.566-.324-.352 1.818-1.782zm6.222-2.938l.733.515-2.755 3.924c-.281.4-.432.692-.453.874-.018.184.082.353.3.506.219.153.403.197.554.13.154-.067.357-.28.61-.64l2.83-4.032.734.515-2.831 4.032c-.425.604-.804.948-1.138 1.032-.392.087-.812-.028-1.267-.346-.498-.35-.74-.753-.725-1.208.008-.312.225-.772.651-1.379l2.757-3.923zm.314 7.326a.502.502 0 01.2.355c.021.147-.014.281-.104.4s-.209.189-.356.21a.547.547 0 01-.397-.107.547.547 0 01-.205-.564.544.544 0 01.095-.195.52.52 0 01.356-.21.546.546 0 01.411.111zm6.378-2.147l-.559.696c-.093-.33-.226-.564-.399-.703a.754.754 0 00-.619-.169c-.22.031-.413.151-.582.361a1.12 1.12 0 00-.255.579 2.69 2.69 0 00-.006.446c.01.191.03.429.062.713.054.528.047.941-.02 1.24-.062.292-.213.589-.455.891-.328.41-.714.654-1.157.734-.438.074-.837-.035-1.198-.324-.305-.244-.497-.535-.578-.874l.565-.707c.105.388.263.666.471.833.194.156.398.213.611.172.213-.042.409-.173.587-.395.153-.192.249-.399.287-.62.016-.108.022-.241.021-.398s-.014-.341-.037-.551c-.038-.323-.062-.601-.07-.833s-.001-.423.024-.572c.052-.289.2-.587.445-.894.331-.414.702-.656 1.11-.726.414-.07.803.041 1.169.334.255.206.449.461.583.767zm-2.39 5.343a.51.51 0 01.18.366.518.518 0 01-.128.394.517.517 0 01-.368.188.554.554 0 01-.585-.5.517.517 0 01.128-.395.545.545 0 01.773-.053zm5.634-2.73l.527.478-3.48 6.003-.67-.608.699-1.151-.996-.903-1.08.806-.651-.59 5.651-4.035zm-2.545 4.11l.576-.937c.395-.635.841-1.291 1.339-1.966-.305.274-.62.544-.948.81-.328.266-.683.543-1.062.831l-.708.532.803.73zm1.023 2.356a.5.5 0 01.155.377.524.524 0 01-.152.385.52.52 0 01-.38.164.556.556 0 01-.551-.537.528.528 0 01.154-.386.524.524 0 01.38-.165.554.554 0 01.394.162z"/>
</g>
  <g id="Columbia_Sans_Bold_Italic">
    <g id="Fizz_3_">
      <g id="Color_2_">
        <path class="st0" d="M51.8 147.536l-14.735.76c.373-2.536.729-5.02 1.106-7.501 2.468-16.263 4.942-32.526 7.407-48.789.282-1.859.263-1.862 2.155-1.96l36.827-1.9 1.67-.086-1.223 7.038-25.446 1.312-2.667 17.684 21.545-1.111-1.251 7.086-1.518.078c-6.2.32-12.4.661-18.602.938-.97.043-1.334.328-1.479 1.321-1.221 8.342-2.505 16.675-3.789 25.13zM124.896 132.158l21.803-1.125c-.077.378-.11.654-.19.916-1.008 3.295-2.028 6.586-3.03 9.883-.168.552-.356.907-1.063.942-11.524.567-23.046 1.168-34.569 1.757-.117.006-.237-.03-.745-.1l27.235-32.211-20.652 1.065.404-2.844c.379-2.673.772-5.343 1.127-8.019.082-.617.247-.959.968-.995 11.773-.584 23.545-1.193 35.318-1.793.075-.004.152.04.607.167l-27.213 32.357zM177.557 109.872l-20.303 1.047 1.667-11.618 36.317-1.873.278.278c-8.882 10.689-17.912 21.258-27.009 32.161l21.762-1.122c-.107.483-.159.827-.26 1.156-.987 3.215-1.998 6.422-2.963 9.643-.189.631-.419.951-1.162.988-11.4.561-22.798 1.157-34.197 1.742-.196.01-.393-.016-1.048-.047l27.082-32.046-.164-.309zM104.964 102.053l-6.327 42.896-12.433.641c.886-5.883 1.759-11.708 2.64-17.533 1.161-7.674 2.355-15.343 3.462-23.024.167-1.159.6-1.591 1.745-1.707 3.556-.358 7.103-.82 10.913-1.273zm-2.792-5.972c2.488-.448 4.399-2.373 4.769-4.795.382-2.501-.681-4.708-2.938-5.782-2.185-1.04-4.451-1.014-6.616.059-2.457 1.218-3.476 3.941-2.636 6.7.808 2.654 3.296 4.218 6.308 3.966.371-.049.745-.081 1.113-.148z"/>
      </g>
      <g id="White_2_">
        <path class="st2" d="M49.8 145.536l-14.735.76c.373-2.536.729-5.02 1.106-7.501 2.468-16.263 4.942-32.526 7.407-48.789.282-1.859.263-1.862 2.155-1.96l36.827-1.9 1.67-.086-1.223 7.038-25.446 1.312-2.667 17.684 21.545-1.111-1.251 7.086-1.518.078c-6.2.32-12.4.661-18.602.938-.97.043-1.334.328-1.479 1.321-1.221 8.342-2.505 16.675-3.789 25.13zM122.896 130.158l21.803-1.125c-.077.378-.11.654-.19.916-1.008 3.295-2.028 6.586-3.03 9.883-.168.552-.356.907-1.063.942-11.524.567-23.046 1.168-34.569 1.757-.117.006-.237-.03-.745-.1l27.235-32.211-20.652 1.065.404-2.844c.379-2.673.772-5.343 1.127-8.019.082-.617.247-.959.968-.995 11.773-.584 23.545-1.193 35.318-1.793.075-.004.152.04.607.167l-27.213 32.357zM175.557 107.872l-20.303 1.047 1.667-11.618 36.317-1.873.278.278c-8.882 10.689-17.912 21.258-27.009 32.161l21.762-1.122c-.107.483-.159.827-.26 1.156-.987 3.215-1.998 6.422-2.963 9.643-.189.631-.419.951-1.162.988-11.4.561-22.798 1.157-34.197 1.742-.196.01-.393-.016-1.048-.047l27.082-32.046-.164-.309zM102.964 100.053l-6.327 42.896-12.433.641c.886-5.883 1.759-11.708 2.64-17.533 1.161-7.674 2.355-15.343 3.462-23.024.167-1.159.6-1.591 1.745-1.707 3.556-.358 7.103-.82 10.913-1.273zm-2.792-5.972c2.488-.448 4.399-2.373 4.769-4.795.382-2.501-.681-4.708-2.938-5.782-2.185-1.04-4.451-1.014-6.616.059-2.457 1.218-3.476 3.941-2.636 6.7.808 2.654 3.296 4.218 6.308 3.966.371-.049.745-.081 1.113-.148z"/>
      </g>
      <g id="Black">
        <path d="M49.219 144.408l-14.735.76c.373-2.536.729-5.02 1.106-7.501 2.468-16.263 4.942-32.526 7.407-48.789.282-1.859.263-1.862 2.155-1.96l36.827-1.9 1.67-.086-1.223 7.038-25.446 1.313-2.667 17.684 21.545-1.111-1.251 7.086-1.518.078c-6.2.32-12.4.661-18.602.938-.97.043-1.334.328-1.479 1.321-1.221 8.342-2.506 16.674-3.789 25.129zM122.314 129.03l21.803-1.125c-.077.378-.11.654-.19.916-1.008 3.295-2.028 6.586-3.03 9.883-.168.552-.356.907-1.063.942-11.524.567-23.046 1.168-34.569 1.757-.117.006-.237-.03-.745-.1l27.235-32.211-20.652 1.065.404-2.844c.379-2.673.772-5.343 1.127-8.019.082-.617.247-.959.968-.995 11.773-.584 23.545-1.193 35.318-1.793.075-.004.152.04.607.167l-27.213 32.357zM174.976 106.745l-20.303 1.047 1.667-11.618 36.317-1.873.278.278c-8.882 10.689-17.912 21.258-27.009 32.161l21.762-1.122c-.107.483-.159.827-.26 1.156-.987 3.215-1.998 6.422-2.963 9.643-.189.631-.419.951-1.162.988-11.4.561-22.798 1.157-34.197 1.742-.196.01-.393-.016-1.048-.047l27.082-32.046-.164-.309zM102.382 98.925l-6.327 42.896-12.433.641c.886-5.883 1.759-11.708 2.64-17.533 1.161-7.674 2.355-15.343 3.462-23.024.167-1.159.6-1.591 1.745-1.707 3.557-.357 7.103-.82 10.913-1.273zm-2.791-5.971c2.488-.448 4.399-2.373 4.769-4.795.382-2.501-.681-4.708-2.938-5.782-2.185-1.04-4.451-1.014-6.616.059-2.457 1.218-3.476 3.941-2.636 6.7.808 2.654 3.296 4.218 6.308 3.966.371-.049.745-.082 1.113-.148z"/>
      </g>
    </g>
  </g>
  </symbol>
</svg>
