<svg xmlns="http://www.w3.org/2000/svg">
  <symbol viewBox="0 0 496 512" id="icon-github"><path d="M165.9 397.4c0 2-2.3 3.6-5.2 3.6-3.3.3-5.6-1.3-5.6-3.6 0-2 2.3-3.6 5.2-3.6 3-.3 5.6 1.3 5.6 3.6zm-31.1-4.5c-.7 2 1.3 4.3 4.3 4.9 2.6 1 5.6 0 6.2-2s-1.3-4.3-4.3-5.2c-2.6-.7-5.5.3-6.2 2.3zm44.2-1.7c-2.9.7-4.9 2.6-4.6 4.9.3 2 2.9 3.3 5.9 2.6 2.9-.7 4.9-2.6 4.6-4.6-.3-1.9-3-3.2-5.9-2.9zM244.8 8C106.1 8 0 113.3 0 252c0 110.9 69.8 205.8 169.5 239.2 12.8 2.3 17.3-5.6 17.3-12.1 0-6.2-.3-40.4-.3-61.4 0 0-70 15-84.7-29.8 0 0-11.4-29.1-27.8-36.6 0 0-22.9-15.7 1.6-15.4 0 0 24.9 2 38.6 25.8 21.9 38.6 58.6 27.5 72.9 20.9 2.3-16 8.8-27.1 16-33.7-55.9-6.2-112.3-14.3-112.3-110.5 0-27.5 7.6-41.3 23.6-58.9-2.6-6.5-11.1-33.3 2.6-67.9 20.9-6.5 69 27 69 27 20-5.6 41.5-8.5 62.8-8.5s42.8 2.9 62.8 8.5c0 0 48.1-33.6 69-27 13.7 34.7 5.2 61.4 2.6 67.9 16 17.7 25.8 31.5 25.8 58.9 0 96.5-58.9 104.2-114.8 110.5 9.2 7.9 17 22.9 17 46.4 0 33.7-.3 75.4-.3 83.6 0 6.5 4.6 14.4 17.3 12.1C428.2 457.8 496 362.9 496 252 496 113.3 383.5 8 244.8 8zM97.2 352.9c-1.3 1-1 3.3.7 5.2 1.6 1.6 3.9 2.3 5.2 1 1.3-1 1-3.3-.7-5.2-1.6-1.6-3.9-2.3-5.2-1zm-10.8-8.1c-.7 1.3.3 2.9 2.3 3.9 1.6 1 3.6.7 4.3-.7.7-1.3-.3-2.9-2.3-3.9-2-.6-3.6-.3-4.3.7zm32.4 35.6c-1.6 1.3-1 4.3 1.3 6.2 2.3 2.3 5.2 2.6 6.5 1 1.3-1.3.7-4.3-1.3-6.2-2.2-2.3-5.2-2.6-6.5-1zm-11.4-14.7c-1.6 1-1.6 3.6 0 5.9 1.6 2.3 4.3 3.3 5.6 2.3 1.6-1.3 1.6-3.9 0-6.2-1.4-2.3-4-3.3-5.6-2z"/>
  </symbol>
  <symbol viewBox="0 0 448 512" id="icon-menu"><path d="M16 132h416c8.837 0 16-7.163 16-16V76c0-8.837-7.163-16-16-16H16C7.163 60 0 67.163 0 76v40c0 8.837 7.163 16 16 16zm0 160h416c8.837 0 16-7.163 16-16v-40c0-8.837-7.163-16-16-16H16c-8.837 0-16 7.163-16 16v40c0 8.837 7.163 16 16 16zm0 160h416c8.837 0 16-7.163 16-16v-40c0-8.837-7.163-16-16-16H16c-8.837 0-16 7.163-16 16v40c0 8.837 7.163 16 16 16z"></path></symbol>
<symbol viewBox="0 0 32 32" id="icon-alert"><path d="M16.108 3C9.448 3 4 8.76 4 15.8c0 7.04 5.449 12.8 12.108 12.8 6.66 0 12.108-5.76 12.108-12.8 0-7.04-5.448-12.8-12.108-12.8zm1.21 19.2h-2.42v-2.56h2.42v2.56zm0-5.12h-2.42V9.4h2.42v7.68z"></path></symbol><symbol viewBox="0 0 32 32" id="icon-arrow-down"><path d="M7.6 13.2h7.5V2H17v11.2h7.5L16 30 7.6 13.2z"></path></symbol><symbol viewBox="0 0 32 32" id="icon-arrow-up"><path d="M16 2l8.4 16.8h-7.5V30H15V18.8H7.6L16 2z"></path></symbol><symbol viewBox="0 0 32 32" id="icon-check-circle"><path d="M16 2C8.3 2 2 8.3 2 16s6.3 14 14 14 14-6.3 14-14S23.7 2 16 2zm-3 21l-6.8-6.7 1.9-1.9 4.8 4.8L23.2 9l1.9 1.9L13 23z"></path></symbol><symbol viewBox="0 0 32 32" id="icon-checkmark"><path d="M6 17.1l6.8 6.9L26 10.7 23.3 8 12.8 18.6l-4.2-4.2L6 17.1z"></path></symbol><symbol viewBox="0 0 32 32" id="icon-chevron-down"><path d="M24.4 8.4L16 16.6 7.6 8.4 4 11.9l12 11.7 12-11.7z"></path></symbol><symbol viewBox="0 0 32 32" id="icon-chevron-left"><path d="M23.6 24.4L15.4 16l8.2-8.4L20 4 8.4 16 20 28z"></path></symbol><symbol viewBox="0 0 32 32" id="icon-chevron-right"><path d="M8.4 7.6l8.2 8.4-8.2 8.4L12 28l11.6-12L12 4z"></path></symbol><symbol viewBox="0 0 32 32" id="icon-chevron-up"><path d="M7.6 23.6l8.4-8.2 8.4 8.2L28 20 16 8.4 4 20z"></path></symbol><symbol viewBox="0 0 32 32" id="icon-close"><path d="M30 4.8L27.2 2 16 13.2 4.8 2 2 4.8 13.2 16 2 27.2 4.8 30 16 18.8 27.2 30l2.8-2.8L18.8 16z"></path></symbol><symbol viewBox="0 0 32 32" id="icon-customize"><path d="M8.4 19.4c-2.8 0-5.1 2.3-5.1 5.1 0 2.2-1.9 3.4-3.4 3.4 1.5 2.1 4.2 3.4 6.7 3.4 3.7 0 6.7-3 6.7-6.7.2-3-2.1-5.2-4.9-5.2zM31.5 3.6l-2.2-2.2c-.7-.7-1.7-.7-2.4 0l-15.1 15 4.6 4.6L31.5 6c.7-.7.7-1.8 0-2.4z"></path></symbol><symbol viewBox="0 0 32 32" id="icon-deal"><path d="M23.5 15.7l-7.2-7.2c-.3-.3-.7-.5-1.1-.5H9.6C8.7 8 8 8.7 8 9.6v5.6c0 .4.2.8.5 1.1l7.2 7.2c.3.3.7.5 1.1.5.4 0 .8-.2 1.1-.5l5.6-5.6c.3-.3.5-.7.5-1.1 0-.4-.2-.8-.5-1.1zM10.8 12c-.7 0-1.2-.5-1.2-1.2s.5-1.2 1.2-1.2 1.2.5 1.2 1.2-.5 1.2-1.2 1.2zM16 31C7.7 31 1 24.3 1 16S7.7 1 16 1s15 6.7 15 15-6.7 15-15 15zm0-28C8.8 3 3 8.8 3 16s5.8 13 13 13 13-5.8 13-13S23.2 3 16 3z"></path></symbol><symbol viewBox="0 0 32 32" id="icon-desktop"><path d="M27.5 3.2h-23C3.1 3.2 2 4.3 2 5.7v15.4c0 1.4 1.1 2.6 2.5 2.6h8.9v2.6h-2.5v2.6h10.2v-2.6h-2.5v-2.6h8.9c1.4 0 2.5-1.1 2.5-2.6V5.7c0-1.4-1.1-2.5-2.5-2.5zm0 17.9h-23V5.7h22.9v15.4z"></path></symbol><symbol viewBox="0 0 32 32" id="icon-edit"><path d="M2 24.3V30h5.7l16.7-16.7-5.7-5.7L2 24.3zM29.6 7.8c.6-.6.6-1.5 0-2l-3.3-3.3c-.6-.6-1.5-.6-2 0L21.6 5l5.4 5.4 2.6-2.6z"></path></symbol><symbol viewBox="0 0 32 32" id="icon-filter"><path d="M12.9 25.3h6.2v-3.1h-6.2v3.1zM2 6.7v3.1h28V6.7H2zm4.7 10.9h18.7v-3.1H6.7v3.1z"></path></symbol><symbol viewBox="0 0 32 32" id="icon-help"><path d="M16 0C7.2 0 0 7.2 0 16s7.2 16 16 16 16-7.2 16-16S24.8 0 16 0zm1.6 27.2h-3.2V24h3.2v3.2zm3.3-12.4l-1.4 1.5c-1.2 1.2-1.9 2.1-1.9 4.5h-3.2V20c0-1.8.7-3.4 1.9-4.5l2-2c.6-.6.9-1.4.9-2.3C19.2 9.4 17.8 8 16 8s-3.2 1.4-3.2 3.2H9.6c0-3.5 2.9-6.4 6.4-6.4s6.4 2.9 6.4 6.4c0 1.4-.6 2.7-1.5 3.6z"></path></symbol><symbol viewBox="0 0 32 32" id="icon-highlight"><path d="M28.4 12.4v16H3.5V3.6h16V0h-16C1.6 0 0 1.6 0 3.6v24.9c0 2 1.6 3.6 3.6 3.6h24.9c2 0 3.6-1.6 3.6-3.6v-16h-3.7zm-3.5 0l1.7-3.7L30.3 7l-3.7-1.7-1.7-3.7-1.7 3.7L19.5 7l3.7 1.7 1.7 3.7zm-6.7 1.4L16 8.9l-2.2 4.9L8.9 16l4.9 2.2 2.2 4.9 2.2-4.9 4.9-2.2-4.9-2.2z"></path></symbol><symbol viewBox="0 0 32 32" id="icon-image"><path d="M30 26.9V5.1C30 3.4 28.6 2 26.9 2H5.1C3.4 2 2 3.4 2 5.1v21.8C2 28.6 3.4 30 5.1 30h21.8c1.7 0 3.1-1.4 3.1-3.1zm-19.4-8.6l3.9 4.7 5.4-7 7 9.3H5.1l5.5-7z"></path></symbol><symbol viewBox="0 0 32 32" id="icon-info"><path d="M16 2C8.3 2 2 8.3 2 16s6.3 14 14 14 14-6.3 14-14S23.7 2 16 2zm1.4 21h-2.8v-8.4h2.8V23zm0-11.2h-2.8V9h2.8v2.8z"></path></symbol><symbol viewBox="0 0 32 32" id="icon-minus"><path d="M30 18H2v-4h28v4z"></path></symbol><symbol viewBox="0 0 32 32" id="icon-mobile"><path d="M22.4 2H9.6C8.2 2 7.1 3.1 7.1 4.5v22.9c0 1.4 1.1 2.5 2.5 2.5h12.7c1.4 0 2.5-1.1 2.5-2.5V4.5c.1-1.4-1-2.5-2.4-2.5zm0 22.9H9.6V7.1h12.7v17.8z"></path></symbol><symbol viewBox="0 0 32 32" id="icon-more"><path d="M16 10c1.6 0 3-1.4 3-3s-1.4-3-3-3-3 1.3-3 3 1.4 3 3 3zm0 3c-1.6 0-3 1.4-3 3 0 1.7 1.4 3 3 3s3-1.3 3-3c0-1.6-1.4-3-3-3zm0 9c-1.6 0-3 1.3-3 3s1.4 3 3 3 3-1.3 3-3-1.4-3-3-3z"></path></symbol><symbol viewBox="0 0 32 32" id="icon-plus"><path d="M30 18H18v12h-4V18H2v-4h12V2h4v12h12v4z"></path></symbol><symbol viewBox="0 0 32 32" id="icon-search"><path d="M22 19.6h-1.3l-.4-.4c1.6-1.8 2.5-4.2 2.5-6.8C22.8 6.7 18.2 2 12.4 2S2 6.7 2 12.4s4.7 10.4 10.4 10.4c2.6 0 4.9-.9 6.8-2.5l.4.4V22l8 8 2.4-2.4-8-8zm-9.6 0c-4 0-7.2-3.2-7.2-7.2s3.2-7.2 7.2-7.2 7.2 3.2 7.2 7.2-3.2 7.2-7.2 7.2z"></path></symbol><symbol viewBox="0 0 32 32" id="icon-share-email"><circle cx="16" cy="16" r="14" fill="currentColor"></circle><path d="M22.4 10.1H9.6c-.4 0-.6.2-.6.6v10.5c0 .4.2.6.6.6h12.8c.4 0 .6-.2.6-.6V10.7c0-.3-.2-.6-.6-.6zm-1.3 2.8L16.4 17c-.1.1-.3.1-.4.1-.1 0-.3-.1-.4-.1l-4.7-4.1c-.2-.2-.3-.6-.1-.8s.6-.3.8-.1l4.3 3.7 4.3-3.7c.2-.2.6-.2.8.1.3.2.3.6.1.8z" fill="#fff"></path></symbol><symbol viewBox="0 0 32 32" id="icon-share-facebook"><circle cx="16" cy="16" r="14" fill="currentColor"></circle><path d="M13.4 13.3h-2V16h2v8.2h3.4V16h2.5l.2-2.7h-2.7v-1.1c0-.6.1-.9.8-.9h2V7.8H17c-2.4 0-3.5 1.1-3.5 3.1v2.4z" fill="#fff"></path></symbol><symbol viewBox="0 0 32 32" id="icon-share-instagram"><circle cx="16" cy="16" r="14" fill="currentColor"></circle><path d="M16 9.3h3.3c2.2.1 3.2 1.2 3.3 3.3v6.6c-.1 2.2-1.1 3.2-3.3 3.3h-6.6c-2.2-.1-3.2-1.2-3.3-3.3v-6.6c.1-2.2 1.1-3.2 3.3-3.3H16zm0-1.5h-3.4C9.7 8 8 9.7 7.9 12.6v6.8c.1 3 1.8 4.6 4.8 4.8h6.8c3-.1 4.6-1.8 4.7-4.8v-6.8c-.1-3-1.8-4.6-4.7-4.8H16zm0 4c-2.3 0-4.2 1.9-4.2 4.2s1.9 4.2 4.2 4.2 4.2-1.9 4.2-4.2c0-2.3-1.9-4.2-4.2-4.2zm0 6.9c-1.5 0-2.7-1.2-2.7-2.7 0-1.5 1.2-2.7 2.7-2.7s2.7 1.2 2.7 2.7c0 1.5-1.2 2.7-2.7 2.7zm4.4-8c-.5 0-1 .4-1 1s.4 1 1 1c.5 0 1-.4 1-1s-.5-1-1-1z" fill="#fff"></path></symbol><symbol viewBox="0 0 32 32" id="icon-share-linkedin"><circle cx="16" cy="16" r="14" fill="currentColor"></circle><path d="M12.8 21.8h-2.4v-8.9h2.4v8.9zm-1.2-9.9c-.8 0-1.4-.6-1.4-1.4 0-.8.6-1.4 1.4-1.4.8 0 1.4.6 1.4 1.4 0 .7-.6 1.4-1.4 1.4zm11 9.9h-2.4v-4.6c0-2.7-3.2-2.5-3.2 0v4.6h-2.4v-8.9H17v1.4c1.1-2.1 5.7-2.3 5.7 2v5.5z" fill="#fff"></path></symbol><symbol viewBox="0 0 32 32" id="icon-share-twitter"><circle cx="16" cy="16" r="14" fill="currentColor"></circle><path d="M13 22.3c6.2 0 9.5-5.1 9.5-9.5v-.4c.7-.5 1.2-1.1 1.7-1.7-.6.3-1.2.4-1.9.5.7-.4 1.2-1.1 1.5-1.9-.6.4-1.4.7-2.1.8C21 9.4 20.1 9 19.1 9c-1.8 0-3.4 1.5-3.4 3.4 0 .3 0 .5.1.8-2.7-.2-5.2-1.6-6.8-3.6-.3.5-.5 1.1-.5 1.7 0 1.2.6 2.2 1.5 2.8-.5 0-1.1-.2-1.5-.4 0 1.6 1.2 3 2.7 3.3-.3.1-.6.1-.9.1-.2 0-.4 0-.6-.1.4 1.3 1.7 2.3 3.1 2.3-1.2.9-2.6 1.4-4.2 1.4h-.8c1.5 1 3.3 1.6 5.2 1.6" fill="#fff"></path></symbol><symbol viewBox="0 0 32 32" id="icon-share-url"><circle cx="16" cy="16" r="14" fill="currentColor"></circle><path d="M15 12.3c.9 0 1.8.4 2.5 1.1.2.2.2.6 0 .9s-.6.2-.9 0c-.4-.4-1-.7-1.6-.7-.6 0-1.1.2-1.5.6l-.1.1-3.3 3.3c-.9.9-.9 2.4 0 3.3.9.9 2.3.9 3.2.1l.1-.1.4-.4c.2-.2.6-.2.9 0 .2.2.2.6 0 .8v.1l-.4.4c-1.4 1.4-3.6 1.4-5 0s-1.4-3.5-.1-4.9l.1-.1 3.3-3.3c.6-.8 1.5-1.2 2.4-1.2zm6.6-3.1c1.4 1.4 1.4 3.5.1 4.9l-.1.1-3.3 3.3c-.7.7-1.6 1.1-2.5 1.1-.9 0-1.8-.4-2.5-1.1-.2-.2-.2-.6 0-.9.2-.2.6-.2.9 0 .4.4 1 .7 1.6.7.6 0 1.1-.2 1.5-.6l.1-.1 3.3-3.3c.9-.9.9-2.4 0-3.3-.9-.9-2.3-.9-3.2-.1l-.1.1-.4.4c-.2.2-.6.2-.9 0-.2-.2-.2-.6 0-.8v-.1l.4-.4c1.5-1.3 3.8-1.3 5.1.1z" fill="#fff"></path></symbol><symbol viewBox="0 0 32 32" id="icon-storefront"><path d="M28.4 3.6H3.6v3.1h24.9V3.6zM30 19.1V16l-1.6-7.8H3.6L2 16v3.1h1.6v9.3h15.6v-9.3h6.2v9.3h3.1v-9.3H30zm-14 6.2H6.7v-6.2H16v6.2z"></path></symbol><symbol viewBox="0 0 32 32" id="icon-tag"><path d="M29.2 15.4L16.6 2.8c-.5-.5-1.2-.8-2-.8H4.8C3.3 2 2 3.3 2 4.8v9.8c0 .8.3 1.5.8 2l12.6 12.6c.5.5 1.2.8 2 .8s1.5-.3 2-.8l9.8-9.8c.5-.5.8-1.2.8-2s-.3-1.5-.8-2zM6.9 9c-1.2 0-2.1-.9-2.1-2.1s.9-2.1 2.1-2.1S9 5.7 9 6.9 8.1 9 6.9 9z"></path></symbol><symbol viewBox="0 0 32 32" id="icon-triangle-down"><path d="M28 10L16 22 4 10h24z"></path></symbol><symbol viewBox="0 0 32 32" id="icon-triangle-right"><path d="M10 4l12 12-12 12V4z"></path></symbol><symbol viewBox="0 0 32 32" id="icon-upload"><path d="M14.3 8v15h3.5V8l7 7 2.5-2.4-10-10c-.7-.7-1.8-.7-2.4 0l-10 10L7.3 15l7-7zm12.2 18.5h-21v-5.2H2v7c0 1 .7 1.8 1.8 1.8h24.5c1 0 1.8-.7 1.8-1.8v-7h-3.5v5.2z"></path></symbol><symbol viewBox="0 0 32 32" id="icon-warning"><path d="M2 28.1h28L16 3.9 2 28.1zm15.3-3.8h-2.5v-2.5h2.5v2.5zm0-5.1h-2.5v-5.1h2.5v5.1z"></path></symbol><symbol viewBox="0 0 64 32" id="icon-wordmark"><path d="M9.3 20.5c-2.6 0-4.6-2.1-4.6-4.7s2-4.7 4.6-4.7 4.6 2.1 4.6 4.7-2 4.7-4.6 4.7m.3-12.9c-2.4 0-3.9 1.1-4.8 2.2L3.1 8h-3v3.2h1.4V32h3.6v-9.9c.6.7 2.1 1.9 4.5 1.9 4.5 0 8-3.7 8-8.2 0-4.5-3.5-8.2-8-8.2m44.8.4l-4.3 11.8L45.8 8H42l6 15.6h4.2l6-15.6h-3.8zM34.9 20.5c-2.6 0-4.5-2.2-4.5-4.7s1.9-4.7 4.5-4.7 4.5 2.2 4.5 4.7-2 4.7-4.5 4.7m0-12.8c-4.4 0-8.2 3.5-8.2 8.1s3.7 8.2 8.2 8.2c4.4 0 8.1-3.6 8.1-8.2s-3.7-8.1-8.1-8.1M27 10.2c.3-.4.7-.8 1-1.2.2-.2.5-.4.7-.6-.3-.2-.7-.4-1.1-.5-.8-.3-1.6-.2-1.6-.2-1.7 0-3 .9-3.8 2L20.5 8h-2.9v3.2H19v12.4h3.6V14c0-1.4 1.4-2.5 2.9-2.5.2 0 .4 0 .6.1h.1c.2-.5.5-.9.8-1.4 0 .1 0 0 0 0M59.7 8l-1.2 3.2h1.3V20H59l-1.1 3.6h5.5V9.3L62.1 8h-2.4zm1.6-2.9c1.4 0 2.6-1.1 2.6-2.6S62.7 0 61.3 0c-1.4 0-2.6 1.2-2.6 2.6.1 1.4 1.2 2.5 2.6 2.5"></path></symbol>
</svg>
