<svg height='100px' width='100px'  fill="#000000" xmlns="http://www.w3.org/2000/svg" viewBox="0 0 512 512" x="0px" y="0px"><g><rect x="160" y="448" width="32" height="16"></rect><rect x="320" y="448" width="32" height="16"></rect><path d="M488,264H432V208a40.15,40.15,0,0,0-16-31.989V136a8,8,0,0,0-8-8H376a8,8,0,0,0-8,8v26.7a31.959,31.959,0,0,0-12.84-2.7H331.772A47.975,47.975,0,0,0,344,128V80a32.036,32.036,0,0,0-32-32H280a32.036,32.036,0,0,0-32,32v48a47.958,47.958,0,0,0,12.23,32H236.84a31.967,31.967,0,0,0-26.616,14.252L209.059,176H208a7.994,7.994,0,0,0-3.578.845l-7.155,3.577A23.869,23.869,0,0,0,184,201.889v11.689l-14.656,21.984A7.993,7.993,0,0,0,168,240v24H24a8,8,0,0,0-8,8V456a8,8,0,0,0,8,8H48V448H32V312H480V448H464v16h24a8,8,0,0,0,8-8V272A8,8,0,0,0,488,264Zm-72,0H400V248h16ZM384,144h16v36.292a8,8,0,0,0,3.993,6.924A24.1,24.1,0,0,1,416,208v24H392a8,8,0,0,0-8,8v24H368V208a24.1,24.1,0,0,1,12.007-20.784A8,8,0,0,0,384,180.292ZM344,264V220.883l8,13.333V264Zm-102.776,0,5.967-41.769.809-1.348V264ZM184,248h16v16H184Zm24-16h-5.632l-1.143-8h29.551l-5.714,40H216V240A8,8,0,0,0,208,232Zm56-128h9.373a62.154,62.154,0,0,0,39.354-13.9L328,100.281V128a31.651,31.651,0,0,1-2.671,12.8,32,32,0,0,1-58.663-.013A31.624,31.624,0,0,1,264,128Zm35.056,72L296,182.111,292.944,176ZM264,176h11.056l13.789,27.578a8,8,0,0,0,14.31,0L316.944,176H328v88H264Zm100.471,3a40.2,40.2,0,0,0-12.214,24.544L344,189.784V176h11.16A16.009,16.009,0,0,1,364.471,179ZM280,64h32a16.019,16.019,0,0,1,16,16v1.052l-11.562-7.708a8,8,0,0,0-10.095,1A46.32,46.32,0,0,1,273.373,88H264V80A16.019,16.019,0,0,1,280,64ZM248,176v13.784l-1.793,2.988a23.873,23.873,0,0,0-11.474-12.35l-5.225-2.612A15.962,15.962,0,0,1,236.84,176Zm-48,25.889a7.956,7.956,0,0,1,4.422-7.156L209.889,192h12.222l5.467,2.733A7.956,7.956,0,0,1,232,201.889V208H200ZM32,296V280H480v16Z"></path><path d="M160,336a8,8,0,0,0-8-8H56a8,8,0,0,0-8,8v32a8,8,0,0,0,8,8H80v73.013A32.056,32.056,0,0,0,56,480v8a8,8,0,0,0,8,8h80a8,8,0,0,0,8-8v-8a32.056,32.056,0,0,0-24-30.987V376h24a8,8,0,0,0,8-8ZM136,480H72a16.019,16.019,0,0,1,16-16h32A16.019,16.019,0,0,1,136,480Zm-24-32H96V376h16Zm32-88H64V344h80Z"></path><path d="M304,328H208a8,8,0,0,0-8,8v32a8,8,0,0,0,8,8h24v73.013A32.056,32.056,0,0,0,208,480v8a8,8,0,0,0,8,8h80a8,8,0,0,0,8-8v-8a32.056,32.056,0,0,0-24-30.987V376h24a8,8,0,0,0,8-8V336A8,8,0,0,0,304,328ZM288,480H224a16.019,16.019,0,0,1,16-16h32A16.019,16.019,0,0,1,288,480Zm-24-32H248V376h16Zm32-88H216V344h80Z"></path><path d="M464,336a8,8,0,0,0-8-8H360a8,8,0,0,0-8,8v32a8,8,0,0,0,8,8h24v73.013A32.056,32.056,0,0,0,360,480v8a8,8,0,0,0,8,8h80a8,8,0,0,0,8-8v-8a32.056,32.056,0,0,0-24-30.987V376h24a8,8,0,0,0,8-8ZM440,480H376a16.019,16.019,0,0,1,16-16h32A16.019,16.019,0,0,1,440,480Zm-24-32H400V376h16Zm32-88H368V344h80Z"></path><path d="M488,136H464V86.83a31.791,31.791,0,0,0-16-27.708V40a8,8,0,0,0-8-8H408a8,8,0,0,0-8,8V59.123c-.292.168-.57.354-.856.531A35.7,35.7,0,0,0,392,44.936V24a8,8,0,0,0-8-8H312a8,8,0,0,0-8,8v8h32v8h16V32h24V48a8,8,0,0,0,2.343,5.657A19.444,19.444,0,0,1,384,67.31V112h16V86.83a15.9,15.9,0,0,1,8.858-14.31l2.73-1.37A8,8,0,0,0,416,64V48h16V64a8,8,0,0,0,4.412,7.15l2.744,1.377A15.9,15.9,0,0,1,448,86.83V136H432v16h48v16H440v16h8v56a8,8,0,0,0,8,8h32a8,8,0,0,0,8-8V144A8,8,0,0,0,488,136Zm-8,96H464V184h16Z"></path><rect x="272" y="112" width="16" height="16"></rect><rect x="304" y="112" width="16" height="16"></rect><rect x="288" y="224" width="16" height="16"></rect><path d="M24,248H56a8,8,0,0,0,8-8V184H176V168H32V152H232V136h-8V86.83a15.9,15.9,0,0,1,8.858-14.31l2.73-1.37A8,8,0,0,0,240,64V48h8V32H232a8,8,0,0,0-8,8V59.123a32.112,32.112,0,0,0-6.008,4.478c-.62-.918-1.282-1.813-1.992-2.677V24a8,8,0,0,0-8-8H176a8,8,0,0,0-8,8,8,8,0,0,0-8-8H128a8,8,0,0,0-8,8V54.111l-3.578,7.156L112,59.056V40a8,8,0,0,0-8-8H72a8,8,0,0,0-8,8V59.056l-7.155,3.577A15.912,15.912,0,0,0,48,76.944V136H24a8,8,0,0,0-8,8v96A8,8,0,0,0,24,248ZM181.657,69.657A8,8,0,0,0,184,64V32h16V64a8,8,0,0,0,2.343,5.657A19.187,19.187,0,0,1,208,83.313V136H176V83.313A19.187,19.187,0,0,1,181.657,69.657ZM128,73.889l7.155-14.311A7.994,7.994,0,0,0,136,56V32h16V56a7.994,7.994,0,0,0,.845,3.578L160,73.889V136H128V73.889ZM64,76.944l11.578-5.789A8,8,0,0,0,80,64V48H96V64a8,8,0,0,0,4.422,7.155L112,76.944V136H64ZM48,184v48H32V184Z"></path></g></svg>