<svg height='100px' width='100px'  fill="#000000" xmlns="http://www.w3.org/2000/svg" viewBox="0 0 512 512" x="0px" y="0px"><g><path d="M168,104V80h48v24a127.571,127.571,0,0,0,6.421,40H192v16h36.915A127.483,127.483,0,0,0,241.6,180.8,112.772,112.772,0,0,1,263.692,240H184v16h80v16h16V248a128.791,128.791,0,0,0-25.6-76.8,111.681,111.681,0,0,1-13.048-22.4c-1.336-3.052-2.546-6.2-3.6-9.375A111.609,111.609,0,0,1,232,104V24a8,8,0,0,0-8-8H160a8,8,0,0,0-8,8v80a112.187,112.187,0,0,1-2.263,22.4l15.677,3.2A128.248,128.248,0,0,0,168,104Zm0-72h48V64H168Z"></path><rect x="136" y="416" width="56" height="16"></rect><rect x="184" y="480" width="16" height="16"></rect><path d="M384,288H208a8,8,0,0,0-7.972,8.664l16,192A8,8,0,0,0,224,496H368a8,8,0,0,0,7.972-7.335l16-192A8,8,0,0,0,384,288Zm-8.694,16-4,48H220.694l-4-48ZM360.639,480H231.361l-9.334-112H369.973Z"></path><path d="M464,144H336a32.036,32.036,0,0,0-32,32v74.39c0,7.345.237,14.787.7,22.119l15.967-1.018c-.446-6.994-.672-14.094-.672-21.1V208h80a8.009,8.009,0,0,1,8,8v40a24,24,0,0,0,48,0V216a8.009,8.009,0,0,1,8-8h16v42.39A333.217,333.217,0,0,1,468.282,337.9,348.782,348.782,0,0,0,456,429.61V480H392v16h72a8,8,0,0,0,8-8V429.61A332.787,332.787,0,0,1,483.718,342.1,349.205,349.205,0,0,0,496,250.39V176A32.036,32.036,0,0,0,464,144Zm-24,72v40a8,8,0,0,1-16,0V216a24.028,24.028,0,0,0-24-24H320V176a16.019,16.019,0,0,1,16-16H464a16.019,16.019,0,0,1,16,16v16H464A24.028,24.028,0,0,0,440,216Z"></path><path d="M304,392H256a8,8,0,0,0-8,8v48a8,8,0,0,0,8,8h48a8,8,0,0,0,8-8V400A8,8,0,0,0,304,392Zm-8,48H264V408h32Z"></path><path d="M128,448h-8V388.317A80.14,80.14,0,0,0,176,312V300.71a156.559,156.559,0,0,0-1.507-21.618A156.143,156.143,0,0,0,170,257.882a139.093,139.093,0,0,1-4.174-56.814c.547-4.062,1.261-8.087,2.122-11.963l7.86-35.37A8,8,0,0,0,168,144H107.313l-32-32,34.344-34.343A8,8,0,0,0,104,64H24a8,8,0,0,0-8,8v80c0,.035.007.068.008.1a8.039,8.039,0,0,0,.071.952c.015.113.035.225.055.337s.031.229.056.343L24.05,189.1c.861,3.877,1.575,7.9,2.118,11.94A141.627,141.627,0,0,1,27.38,219.46,139.808,139.808,0,0,1,22,257.886a156.135,156.135,0,0,0-6,42.824V312a80.14,80.14,0,0,0,56,76.317V448H64a40.045,40.045,0,0,0-40,40,8,8,0,0,0,8,8H160a8,8,0,0,0,8-8A40.045,40.045,0,0,0,128,448Zm23.059-256H40.941c-.384-2.149-6.968-32-6.968-32H158.027S151.444,189.85,151.059,192ZM84.687,144H43.313L64,123.313ZM32,80H84.687L32,132.687Zm0,232V300.71a140.1,140.1,0,0,1,5.382-38.431,155.78,155.78,0,0,0,6-42.819c0-3.8-.157-7.631-.438-11.46h106.1a154.856,154.856,0,0,0,5.575,54.28,139.793,139.793,0,0,1,4.029,19.029h0A140.438,140.438,0,0,1,160,300.71V312a64,64,0,0,1-128,0Zm56,79.6q3.948.395,8,.4t8-.4V448H88ZM41.371,480A24.042,24.042,0,0,1,64,464h64a24.042,24.042,0,0,1,22.629,16Z"></path><path d="M129.941,337.941a48,48,0,0,0,0-67.882,8,8,0,0,0-11.314,0L62.059,326.627a8,8,0,0,0,0,11.314,48,48,0,0,0,67.882,0Zm-6.366-50.2a32.02,32.02,0,0,1-43.837,43.837Z"></path><rect x="64" y="248" width="16" height="16"></rect><rect x="104" y="224" width="16" height="16"></rect><rect x="352" y="232" width="16" height="16"></rect><rect x="416" y="320" width="16" height="16"></rect><rect x="400" y="384" width="16" height="16"></rect></g></svg>