<svg height='100px' width='100px'  fill="#000000" xmlns="http://www.w3.org/2000/svg" viewBox="0 0 512 512" x="0px" y="0px"><g><path d="M333.938,358.13l4.124-15.459-21.923-5.846-140.5-140.5-11.78-105.99-15.9,1.768,7.338,66.022-4.428-4.427a16,16,0,0,1-22.626,0l-5.466-5.466a46.25,46.25,0,0,1,22.354-9.748l-2.262-15.839a62.353,62.353,0,0,0-31.458,14.221l-.149-.149a16,16,0,0,1,.01-22.616L99.958,102.786a31.762,31.762,0,0,0-8.979,17.621A45.925,45.925,0,0,0,27.365,150L17.254,187.068h0a35.587,35.587,0,0,0,43.679,43.677L98,220.635a45.865,45.865,0,0,0,33.721-47.211,32.205,32.205,0,0,0,7.834.961,31.779,31.779,0,0,0,17-4.889l3.1,27.888-53.681,61.348c-.3.342-88.8,145.1-88.8,145.1a8,8,0,0,0,1.169,9.829l80,80a8,8,0,0,0,9.928,1.107l152-96c.329-.207,53.738-45.949,53.738-45.949ZM107.08,197.488A29.96,29.96,0,0,1,93.792,205.2L56.722,215.31A19.572,19.572,0,0,1,32.69,191.278h0L42.8,154.207A29.929,29.929,0,0,1,92.836,140.92l14.244,14.244A29.961,29.961,0,0,1,107.08,197.488ZM93.186,310.128l28.471-28.471a20.284,20.284,0,1,1,28.686,28.686L44,416.686,34.11,406.8Zm97.157,40.215L84,456.686,55.314,428,161.657,321.657a20.284,20.284,0,0,1,28.686,28.686ZM105.135,477.821,95.314,468,201.657,361.657a20.284,20.284,0,1,1,28.686,28.686l-22.8,22.8Zm146.1-92.274-.266.168A36.427,36.427,0,0,0,252.29,376a36.26,36.26,0,0,0-40.224-36.047,37.008,37.008,0,0,0,.218-3.953A36.283,36.283,0,0,0,176,299.716a36.793,36.793,0,0,0-3.926.215A36.872,36.872,0,0,0,172.29,296a36.276,36.276,0,0,0-47.469-34.5L168.389,211.7,300.234,343.548Z"></path><path d="M262.716,110.087l-29.072,53.987a8.682,8.682,0,0,1-16.234-5.353l6.51-45.577-15.84-2.262-6.509,45.575a24.679,24.679,0,0,0,46.163,15.2l29.072-53.983a22.987,22.987,0,1,1,35.623,27.983l-32.9,29.61a34.646,34.646,0,1,0,49.25,48.565l10.452-11.94A22.222,22.222,0,0,1,378.17,226.47a22.275,22.275,0,0,1-13.209,20.349l-24.588,10.929A28.347,28.347,0,0,0,351.89,312h55.95a24.245,24.245,0,0,1,21.12,36.087l13.955,7.826A40.227,40.227,0,0,0,407.84,296H351.89a12.349,12.349,0,0,1-5.021-23.63l24.589-10.929a38.2,38.2,0,0,0,16.9-55.182,38.216,38.216,0,0,0-61.164-4.907l-10.453,11.942a18.646,18.646,0,1,1-26.506-26.138l32.9-29.608a38.989,38.989,0,1,0-60.413-47.461Z"></path><path d="M216,96a72.081,72.081,0,0,0,72-72,8,8,0,0,0-8-8H152a8,8,0,0,0-8,8A72.081,72.081,0,0,0,216,96Zm7.856-52.829,25.656,25.655a55.7,55.7,0,0,1-25.928,10.658ZM207.584,79.358A55.826,55.826,0,0,1,178.571,65.6l29.3-24.416Zm53.244-21.844L235.314,32h36.117A55.724,55.724,0,0,1,260.828,57.514ZM193.9,32,168.315,53.324A55.621,55.621,0,0,1,160.569,32Z"></path><path d="M488,120a72,72,0,0,0,0,144,8,8,0,0,0,8-8V128A8,8,0,0,0,488,120ZM443.174,225.512a55.691,55.691,0,0,1-10.658-25.932l36.314.275ZM480,169.9l-21.325-25.589A55.631,55.631,0,0,1,480,136.569Zm-33.6-15.333,24.415,29.3-38.168-.289A55.82,55.82,0,0,1,446.4,154.571Zm8.09,82.257L480,211.314v36.117A55.724,55.724,0,0,1,454.486,236.828Z"></path><path d="M360,71.8V72a16.019,16.019,0,0,1-16,16v16a31.816,31.816,0,0,0,18.8-6.129,45.93,45.93,0,0,0,65.913,24.078l33.363-19.064h0a35.572,35.572,0,0,0,0-61.769L428.714,22.051a45.868,45.868,0,0,0-57.243,9.56A32.011,32.011,0,0,0,344,16V32a16.019,16.019,0,0,1,16,16v7.727a45.776,45.776,0,0,1-33.344-20.165l-13.312,8.876A61.75,61.75,0,0,0,360,71.8ZM405.928,32a29.972,29.972,0,0,1,14.848,3.943l33.363,19.064a19.572,19.572,0,0,1,0,33.985l-33.364,19.065A29.928,29.928,0,0,1,376,82.072V61.928A29.962,29.962,0,0,1,405.928,32Z"></path><rect x="384" y="72" width="16" height="16"></rect><rect x="408" y="40" width="16" height="16"></rect><rect x="424" y="72" width="16" height="16"></rect><path d="M339.111,445.688l-21.2-33.92a8,8,0,0,0-13.718.25l-19.954,34.669a32.021,32.021,0,0,0-4.259,16.542l.025,1.352h0A32,32,0,0,0,311.984,496c.2,0,.4,0,.6,0A32,32,0,0,0,344,463.419l-.024-1.354A32,32,0,0,0,339.111,445.688Zm-15.593,29.417A16,16,0,0,1,296,464.291l-.024-1.353a16.009,16.009,0,0,1,2.128-8.271l13.3-23.112,14.134,22.613a16.01,16.01,0,0,1,2.429,8.187l.024,1.354A15.894,15.894,0,0,1,323.518,475.105Z"></path><path d="M55.586,68.731A32.012,32.012,0,0,0,69.3,78.918l37.312,14.415a8,8,0,0,0,10.825-8.43L112.6,45.2a32.008,32.008,0,0,0-6.519-15.791l-.831-1.067h0A32,32,0,0,0,54.754,67.663Zm8.537-22.7a16,16,0,0,1,28.5-7.858l.832,1.068a16,16,0,0,1,3.26,7.9L99.94,73.6,75.065,63.992A15.984,15.984,0,0,1,68.21,58.9l-.832-1.068A15.894,15.894,0,0,1,64.123,46.027Z"></path><path d="M379.147,322.343a8,8,0,0,0-11.314,0A72,72,0,0,0,469.657,424.167a8,8,0,0,0,0-11.314Zm-5.5,84.1a55.822,55.822,0,0,1-10.787-30.237l37.981,3.453Zm37.1-14.08v36.284a55.7,55.7,0,0,1-25.873-10.8Zm-36.851-52.647,23.57,23.571-33.172-3.017A55.6,55.6,0,0,1,373.894,339.717Zm52.851,88.934V392.568l25.538,25.538A55.705,55.705,0,0,1,426.745,428.651Z"></path><rect x="74.987" y="145.699" width="16.001" height="16" transform="translate(-84.375 103.699) rotate(-45)"></rect><rect x="80.645" y="185.296" width="16" height="16" transform="translate(-110.721 119.305) rotate(-45.002)"></rect><rect x="46.703" y="173.983" width="16.001" height="16" transform="translate(-112.659 91.983) rotate(-45)"></rect></g></svg>