<svg xmlns="http://www.w3.org/2000/svg" viewBox="0 0 32 32">
  <path d="M16 31.125c-.242 0-.482-.007-.721-.019l-.071-.004-.034-.062c-.382-.728-.77-1.081-1.184-1.081-.353 0-.75.246-1.216.753l-.049.053-.07-.016a15.198 15.198 0 01-1.336-.366l-.069-.023-.015-.072c-.246-1.216-.694-1.356-1.01-1.356-.298 0-.681.151-1.138.449l-.062.04-.065-.034c-.4-.212-.79-.441-1.168-.687l-.062-.039.005-.074c.045-.671-.043-1.114-.27-1.357-.144-.153-.349-.229-.627-.229-.248 0-.559.062-.922.185l-.07.023-.055-.05c-.331-.303-.648-.62-.951-.951l-.05-.054.023-.07c.233-.691.246-1.166.04-1.453-.182-.254-.55-.377-1.125-.377-.1 0-.206.004-.317.012l-.073.005-.04-.062c-.245-.38-.475-.769-.686-1.17l-.034-.065.041-.062c.406-.622.535-1.088.394-1.424-.141-.338-.567-.574-1.302-.724l-.071-.013-.022-.069a15.069 15.069 0 01-.367-1.337l-.016-.07.053-.049c.551-.507.795-.935.746-1.311-.049-.378-.4-.734-1.074-1.09l-.063-.033-.003-.071a14.363 14.363 0 01-.001-1.442l.003-.071.063-.034c.674-.354 1.025-.711 1.074-1.089.049-.375-.195-.804-.746-1.31l-.053-.049.016-.07c.103-.454.224-.899.367-1.336l.023-.07.071-.015c.735-.149 1.161-.385 1.302-.723.141-.336.012-.802-.394-1.425l-.04-.061.034-.066c.211-.4.44-.791.686-1.169l.04-.062.073.005c.111.007.217.011.316.011.576 0 .944-.124 1.126-.377.206-.287.192-.762-.041-1.452l-.023-.07.05-.055c.303-.331.621-.648.951-.951l.055-.05.07.023c.364.124.674.186.922.186.278 0 .483-.075.627-.229.227-.243.315-.687.27-1.358l-.005-.073.062-.04c.378-.245.768-.475 1.169-.686l.065-.035.062.041c.457.298.839.449 1.137.449.316 0 .764-.141 1.01-1.357l.015-.071.069-.022c.437-.143.883-.264 1.336-.367l.07-.016.049.053c.465.506.862.752 1.215.752.415 0 .802-.354 1.185-1.081l.034-.063.071-.003c.239-.011.479-.018.721-.018s.482.007.721.018l.071.003.033.063c.383.727.771 1.081 1.185 1.081.353 0 .75-.246 1.216-.752l.049-.053.07.016c.453.103.899.224 1.337.367l.069.022.014.071c.247 1.216.694 1.357 1.011 1.357.298 0 .68-.151 1.137-.449l.062-.041.065.035c.401.211.79.44 1.17.686l.062.04-.005.073c-.046.671.042 1.115.269 1.358.145.154.35.229.628.229.248 0 .559-.062.922-.185l.07-.023.054.05c.331.303.648.62.951.951l.05.055-.023.07c-.233.69-.246 1.166-.041 1.452.183.254.552.377 1.128.377.1 0 .204-.003.314-.011l.071-.005.04.062c.245.378.475.768.687 1.168l.034.065-.04.062c-.406.623-.535 1.089-.394 1.425.141.337.566.574 1.301.722l.072.015.022.069c.143.437.264.883.366 1.336l.016.07-.053.049c-.552.507-.795.935-.746 1.311.049.378.4.735 1.074 1.089l.062.034.004.071a14.363 14.363 0 010 1.442l-.004.071-.062.033c-.674.355-1.025.712-1.074 1.09-.049.375.195.804.746 1.311l.053.049-.016.07c-.103.453-.224.899-.366 1.337l-.022.069-.072.014c-.734.149-1.16.386-1.302.723-.141.336-.012.802.395 1.425l.04.062-.034.065c-.212.401-.44.79-.687 1.17l-.039.062-.074-.005a4.425 4.425 0 00-.317-.012c-.574 0-.942.123-1.124.377-.206.287-.193.763.04 1.453l.023.07-.05.054c-.303.331-.62.648-.951.951l-.054.05-.07-.023c-.363-.122-.674-.185-.922-.185-.278 0-.483.075-.628.229-.227.242-.314.686-.269 1.356l.005.074-.061.04c-.38.246-.769.475-1.17.687l-.065.034-.062-.04c-.457-.298-.84-.449-1.138-.449-.315 0-.764.141-1.01 1.356l-.014.072-.069.022a14.73 14.73 0 01-1.337.366l-.07.016-.049-.053c-.466-.507-.863-.753-1.216-.753-.414 0-.802.354-1.185 1.081l-.033.062-.071.004c-.238.013-.478.02-.72.02z" fill="#bc00bf"/>
  <path d="M16 1c.24 0 .478.007.715.018.403.766.823 1.147 1.295 1.147.393 0 .822-.265 1.307-.793.45.102.892.222 1.325.363.198.978.559 1.457 1.133 1.457.329 0 .728-.158 1.206-.469.398.21.784.437 1.159.68-.078 1.164.24 1.72 1.022 1.72.266 0 .586-.064.961-.191.328.3.643.615.943.943-.463 1.373-.094 1.995 1.205 1.995.102 0 .21-.004.324-.011.243.375.471.762.68 1.159-.855 1.311-.551 2.027.988 2.338.141.433.262.875.363 1.325-1.16 1.066-1.051 1.863.355 2.602a14.266 14.266 0 01.001 1.432c-1.405.74-1.515 1.536-.355 2.602-.102.45-.222.892-.363 1.325-1.539.312-1.842 1.027-.988 2.338-.21.398-.437.784-.68 1.159a4.614 4.614 0 00-.324-.011c-1.299 0-1.668.622-1.205 1.995-.3.328-.615.643-.943.943-.376-.127-.695-.191-.961-.191-.782 0-1.1.556-1.022 1.72-.376.243-.762.471-1.159.68-.478-.312-.877-.469-1.206-.469-.573 0-.935.479-1.133 1.457-.433.141-.875.262-1.325.363-.485-.528-.914-.793-1.307-.793-.472 0-.892.381-1.295 1.147a13.107 13.107 0 01-1.431.002c-.403-.766-.823-1.147-1.295-1.147-.393 0-.822.265-1.307.793a14.95 14.95 0 01-1.325-.363c-.198-.978-.559-1.457-1.133-1.457-.329 0-.728.158-1.206.469-.398-.21-.784-.437-1.159-.68.078-1.164-.24-1.72-1.022-1.72-.266 0-.586.064-.961.191-.328-.3-.643-.615-.943-.943.463-1.373.094-1.995-1.205-1.995-.102 0-.21.004-.324.011a14.884 14.884 0 01-.68-1.159c.855-1.311.551-2.027-.988-2.338a14.615 14.615 0 01-.363-1.325c1.16-1.066 1.051-1.863-.355-2.602a14.266 14.266 0 01-.001-1.432c1.405-.74 1.515-1.536.355-2.602.102-.45.222-.892.363-1.325 1.539-.312 1.843-1.027.988-2.338.21-.398.437-.784.68-1.159.114.008.222.011.324.011 1.299 0 1.668-.622 1.205-1.995.3-.328.615-.643.943-.943.376.126.696.19.962.19.782 0 1.1-.556 1.022-1.72.375-.243.762-.471 1.159-.68.478.312.877.469 1.206.469.573 0 .935-.479 1.133-1.457.433-.141.875-.262 1.325-.363.485.528.914.793 1.307.793.472 0 .892-.381 1.295-1.147C15.522 1.007 15.76 1 16 1m0-.25c-.244 0-.486.007-.727.018l-.143.007-.067.127c-.359.682-.71 1.014-1.074 1.014-.311 0-.689-.24-1.123-.712l-.098-.107-.141.032c-.461.104-.914.228-1.347.369l-.139.045-.029.143c-.228 1.126-.616 1.257-.888 1.257-.273 0-.633-.144-1.069-.429l-.123-.08-.13.068c-.396.21-.793.442-1.178.692l-.124.08.01.147c.042.626-.038 1.051-.237 1.264-.119.128-.295.19-.536.19-.235 0-.531-.06-.881-.178l-.14-.047-.109.1c-.332.303-.654.625-.958.958l-.1.109.047.14c.216.641.235 1.091.057 1.339-.155.216-.5.325-1.025.325-.097 0-.199-.004-.307-.011l-.147-.01-.08.123a15.6 15.6 0 00-.691 1.179l-.069.13.08.123c.376.577.505 1.018.384 1.308-.122.292-.53.51-1.212.649l-.143.029-.045.139c-.141.434-.265.887-.369 1.347l-.032.141.107.098c.512.47.749.874.707 1.202-.043.331-.382.665-1.009.995l-.127.067-.007.143c-.011.241-.018.483-.018.727s.007.486.018.727l.007.143.127.067c.626.33.966.664 1.009.995.043.327-.195.732-.707 1.202l-.107.098.032.141c.104.461.228.914.369 1.347l.045.139.143.029c.682.138 1.089.356 1.212.649.122.291-.007.731-.384 1.308l-.08.123.068.13c.209.397.442.794.691 1.179l.08.123.147-.01c.108-.007.21-.011.307-.011.525 0 .87.109 1.025.325.178.248.159.699-.057 1.339l-.047.14.1.109c.304.332.627.655.959.959l.109.1.14-.047c.35-.118.647-.178.882-.178.241 0 .417.062.536.19.199.213.278.638.236 1.264l-.01.146.123.08c.386.25.782.482 1.179.691l.13.069.123-.08c.436-.284.796-.429 1.069-.429.272 0 .66.13.888 1.257l.029.143.139.045c.433.141.887.265 1.347.369l.141.032.098-.107c.434-.472.812-.712 1.123-.712.363 0 .715.332 1.074 1.014l.067.127.143.007c.241.011.483.018.727.018s.486-.007.727-.018l.143-.007.067-.127c.359-.682.71-1.014 1.074-1.014.311 0 .689.24 1.123.712l.098.107.141-.032c.461-.104.914-.228 1.347-.369l.139-.045.029-.143c.228-1.126.616-1.257.888-1.257.273 0 .633.144 1.069.429l.123.08.13-.068c.396-.209.793-.441 1.179-.691l.123-.08-.01-.147c-.042-.626.038-1.051.237-1.264.119-.128.295-.19.536-.19.235 0 .531.06.881.178l.14.047.109-.1c.332-.304.655-.627.959-.959l.1-.109-.047-.14c-.216-.641-.235-1.091-.057-1.339.155-.216.5-.326 1.025-.326.097 0 .199.004.307.011l.147.01.08-.123c.25-.386.483-.783.691-1.179l.069-.13-.08-.123c-.376-.577-.505-1.018-.384-1.308.122-.292.53-.51 1.212-.648l.143-.029.045-.139c.141-.433.265-.887.369-1.347l.032-.141-.107-.098c-.512-.47-.749-.875-.707-1.202.043-.331.382-.665 1.009-.995l.127-.067.007-.143c.011-.241.018-.483.018-.727s-.007-.486-.018-.727l-.007-.143-.127-.067c-.626-.33-.966-.664-1.009-.995-.043-.327.195-.732.707-1.202l.107-.098-.032-.141a15.098 15.098 0 00-.369-1.347l-.045-.139-.143-.029c-.682-.138-1.089-.356-1.212-.649-.122-.291.007-.731.384-1.308l.08-.123-.068-.13a15.348 15.348 0 00-.691-1.179l-.082-.123-.147.01c-.108.007-.21.011-.307.011-.525 0-.87-.109-1.025-.325-.178-.248-.159-.699.057-1.339l.047-.14-.1-.109a15.491 15.491 0 00-.959-.959l-.109-.1-.14.047c-.35.118-.647.178-.882.178-.241 0-.417-.062-.536-.19-.199-.213-.278-.638-.236-1.264l.01-.147-.123-.08c-.386-.25-.783-.483-1.179-.691l-.13-.069-.123.08c-.436.284-.796.429-1.069.429-.272 0-.66-.13-.888-1.257l-.029-.143-.138-.044a15.192 15.192 0 00-1.347-.369l-.141-.032-.098.107c-.434.472-.812.712-1.123.712-.363 0-.715-.332-1.074-1.014L16.87.775l-.143-.007A15.925 15.925 0 0016 .75z"/>
  <path d="M30.264 20.642c.141-.433.262-.875.363-1.325-1.16-1.066-1.051-1.862.355-2.602.011-.237.018-.475.018-.715s-.007-.478-.018-.715c-1.405-.74-1.515-1.536-.355-2.602a14.95 14.95 0 00-.363-1.325c-.871-.176-1.345-.482-1.439-.952H3.175c-.094.47-.568.776-1.439.952-.141.433-.262.875-.363 1.325 1.16 1.066 1.051 1.862-.355 2.602C1.007 15.522 1 15.76 1 16s.007.478.018.715c1.405.74 1.515 1.536.355 2.602.102.45.222.892.363 1.325.805.163 1.269.438 1.409.85h25.71c.14-.411.604-.686 1.409-.85z" fill="#fff"/>
  <linearGradient id="a" gradientUnits="userSpaceOnUse" x1="6.777" y1="27.223" x2="16.326" y2="17.674" gradientTransform="matrix(1 0 0 -1 0 34)">
    <stop offset="0" stop-color="#fff" stop-opacity=".6"/>
    <stop offset="1" stop-color="#fff" stop-opacity="0"/>
  </linearGradient>
  <path d="M3.609 16.652c0-7.204 5.84-13.043 13.043-13.043 3.436 0 6.561 1.329 8.891 3.501A13.006 13.006 0 0016 2.957C8.796 2.957 2.957 8.796 2.957 16c0 3.768 1.598 7.162 4.153 9.543a12.996 12.996 0 01-3.501-8.891z" fill="url(#a)"/>
  <path d="M7.42 19.842l-1.922.099c.049-.331.095-.655.144-.978l.966-6.364c.037-.242.034-.243.281-.256l4.804-.248.218-.011-.16.918-3.319.171-.348 2.307 2.81-.145-.163.924-.198.01c-.809.042-1.617.086-2.426.122-.127.006-.174.043-.193.172-.159 1.089-.327 2.176-.494 3.279zm9.534-2.006l2.844-.147c-.01.049-.014.085-.025.119-.131.43-.265.859-.395 1.289-.022.072-.046.118-.139.123-1.503.074-3.006.152-4.509.229-.015.001-.031-.004-.097-.013l3.552-4.201-2.694.139.053-.371c.049-.349.101-.697.147-1.046.011-.08.032-.125.126-.13 1.536-.076 3.071-.156 4.607-.234.01-.001.02.005.079.022l-3.549 4.221zm6.869-2.907l-2.648.137.217-1.515 4.737-.244.036.036c-1.159 1.394-2.336 2.773-3.523 4.195l2.839-.146c-.014.063-.021.108-.034.151-.129.419-.261.838-.386 1.258-.025.082-.055.124-.152.129-1.487.073-2.974.151-4.46.227-.026.001-.051-.002-.137-.006l3.532-4.18-.021-.042zm-9.469-1.02l-.825 5.595-1.622.084.344-2.287c.151-1.001.307-2.001.452-3.003.022-.151.078-.208.228-.223.464-.046.926-.107 1.423-.166zm-.364-.779a.757.757 0 00.622-.625c.05-.326-.089-.614-.383-.754a.951.951 0 00-.863.008c-.32.159-.453.514-.344.874.105.346.43.55.823.517.048-.007.097-.011.145-.02z"/>
</svg>