<svg version="1.1" id="Fizz_Logo" xmlns="http://www.w3.org/2000/svg" x="0" y="0" viewBox="0 0 230 230" xml:space="preserve">
  <style>
    .st15{fill:#bc00bf}.st17{fill:#fff}
  </style>
  <g id="Bottlecap_1_">
    <g id="Cap">
      <linearGradient id="SVGID_1_" gradientUnits="userSpaceOnUse" x1="10.168" y1="163.674" x2="219.832" y2="70.326" gradientTransform="matrix(1 0 0 -1 0 232)">
        <stop offset="0" stop-color="#e6e6e6"/>
        <stop offset="1" stop-color="#666"/>
      </linearGradient>
      <path d="M229.9 120.5c.1-1.8.1-3.6.1-5.5s-.1-3.7-.1-5.5c-10.8-5.7-11.6-11.8-2.7-20-.8-3.4-1.7-6.8-2.8-10.2-11.8-2.4-14.1-7.9-7.6-17.9-1.6-3-3.3-6-5.2-8.9-12 .8-15.6-3.9-11.7-15.2-2.3-2.5-4.7-4.9-7.2-7.2-11.4 3.8-16 .2-15.2-11.7-2.9-1.9-5.8-3.6-8.9-5.2-10.1 6.6-15.5 4.2-17.9-7.6-3.3-1.1-6.7-2-10.2-2.8-8.2 8.9-14.3 8.1-19.9-2.7-1.9 0-3.8-.1-5.6-.1s-3.7.1-5.5.1c-5.7 10.8-11.8 11.6-20 2.7-3.4.8-6.8 1.7-10.2 2.8-2.4 11.8-7.9 14.1-17.9 7.6-3 1.6-6 3.3-8.9 5.2.8 12-3.9 15.5-15.2 11.7-2.5 2.3-4.9 4.7-7.2 7.2 3.8 11.4.2 16-11.7 15.2-1.9 2.9-3.6 5.8-5.2 8.9 6.6 10.1 4.2 15.5-7.6 17.9-1.1 3.3-2 6.7-2.8 10.2 8.9 8.2 8.1 14.3-2.7 19.9 0 1.9-.1 3.8-.1 5.6s.1 3.7.1 5.5c10.8 5.7 11.6 11.8 2.7 20 .8 3.4 1.7 6.8 2.8 10.2 11.8 2.4 14.1 7.9 7.6 17.9 1.6 3 3.3 6 5.2 8.9 12-.8 15.5 3.9 11.7 15.2 2.3 2.5 4.7 4.9 7.2 7.2 11.4-3.8 16-.2 15.2 11.7 2.9 1.9 5.8 3.6 8.9 5.2 10.1-6.6 15.5-4.2 17.9 7.6 3.3 1.1 6.7 2 10.2 2.8 8.2-8.9 14.3-8.1 19.9 2.7 1.8.1 3.6.1 5.5.1s3.7-.1 5.5-.1c5.7-10.8 11.8-11.6 19.9-2.7 3.4-.8 6.8-1.7 10.2-2.8 2.4-11.8 7.9-14.1 17.9-7.6 3-1.6 6-3.3 8.9-5.2-.8-12 3.9-15.6 15.2-11.7 2.5-2.3 4.9-4.7 7.2-7.2-3.8-11.4-.2-16 11.7-15.2 1.9-2.9 3.6-5.8 5.2-8.9-6.6-10.1-4.2-15.5 7.6-17.9 1.1-3.3 2-6.7 2.8-10.2-8.8-8.2-7.9-14.3 2.9-20z" fill="url(#SVGID_1_)"/>
      <linearGradient id="SVGID_2_" gradientUnits="userSpaceOnUse" x1="10.168" y1="163.674" x2="219.833" y2="70.326" gradientTransform="matrix(1 0 0 -1 0 232)">
        <stop offset="0" stop-color="gray"/>
        <stop offset="1" stop-color="#ccc"/>
      </linearGradient>
      <path d="M230 115c0-1.8-.1-3.7-.1-5.5-1.2-.6-2.3-1.3-3.2-1.9l-32.3-3.1 29-10.8c1-1.3 2.2-2.7 3.8-4.2-.8-3.4-1.7-6.8-2.8-10.2-.9-.2-1.7-.4-2.5-.6l-33 5.6 25.2-17.9c.6-1.5 1.5-3.2 2.7-5-1.6-3-3.3-6-5.2-8.9-1.2.1-2.3.1-3.3.1l-29.8 13.6 20.2-24.4c.2-1.4.6-2.9 1.2-4.5-2.3-2.5-4.7-4.9-7.2-7.2-1.6.6-3.1.9-4.5 1.2l-24.4 20.2 13.6-29.8c0-1 0-2.1.1-3.3-2.9-1.9-5.8-3.6-8.9-5.2-1.8 1.2-3.5 2.1-5 2.7l-17.9 25.2 5.6-33c-.2-.8-.4-1.6-.6-2.5-3.3-1.1-6.7-2-10.2-2.8-1.5 1.6-2.9 2.9-4.2 3.8l-10.8 29-3.1-32.3c-.6-1-1.3-2-1.9-3.2-1.8 0-3.7-.1-5.5-.1s-3.7.1-5.5.1c-.6 1.2-1.3 2.3-1.9 3.2l-3.1 32.3-10.8-29c-1.3-1-2.7-2.2-4.2-3.8-3.4.8-6.8 1.7-10.2 2.8-.2.9-.4 1.7-.6 2.5l5.6 33-17.8-25.2c-1.5-.6-3.2-1.5-5-2.7-3 1.6-6 3.3-8.9 5.2.1 1.2.1 2.3.1 3.3l13.6 29.8-24.4-20.2c-1.4-.2-2.9-.6-4.5-1.2-2.5 2.3-4.9 4.7-7.2 7.2.6 1.6.9 3.1 1.2 4.5l20.2 24.4-29.9-13.5c-1 0-2.1 0-3.3-.1-1.9 2.9-3.6 5.8-5.2 8.9 1.2 1.8 2.1 3.5 2.7 5l25.2 17.9-33-5.6c-.8.2-1.6.4-2.5.6-1.1 3.3-2 6.7-2.8 10.2 1.6 1.5 2.9 2.9 3.8 4.2l29 10.8-32.3 3.1c-1 .6-2 1.3-3.2 1.9 0 1.7-.1 3.6-.1 5.4s.1 3.7.1 5.5c1.2.6 2.3 1.3 3.2 1.9l32.3 3.1-29 10.8c-1 1.3-2.2 2.7-3.8 4.2.8 3.4 1.7 6.8 2.8 10.2.9.2 1.7.4 2.5.6l33-5.6-25.2 17.9c-.6 1.5-1.5 3.2-2.7 5 1.6 3 3.3 6 5.2 8.9 1.2-.1 2.3-.1 3.3-.1l29.8-13.6-20.2 24.4c-.2 1.4-.6 2.9-1.2 4.5 2.3 2.5 4.7 4.9 7.2 7.2 1.6-.6 3.1-.9 4.5-1.2l24.4-20.2-13.6 29.8c0 1 0 2.1-.1 3.3 2.9 1.9 5.8 3.6 8.9 5.2 1.8-1.2 3.5-2.1 5-2.7l17.9-25.2-5.6 33c.2.8.4 1.6.6 2.5 3.3 1.1 6.7 2 10.2 2.8 1.5-1.6 2.9-2.9 4.2-3.8l10.8-29 3.1 32.3c.6 1 1.3 2 1.9 3.2 1.8.1 3.6.1 5.5.1s3.7-.1 5.5-.1c.6-1.2 1.3-2.3 1.9-3.2l3.1-32.3 10.8 29c1.3 1 2.7 2.2 4.2 3.8 3.4-.8 6.8-1.7 10.2-2.8.2-.9.4-1.7.6-2.5l-5.6-33 17.9 25.2c1.5.6 3.2 1.5 5 2.7 3-1.6 6-3.3 8.9-5.2-.1-1.2-.1-2.3-.1-3.3l-13.6-29.8 24.4 20.2c1.4.2 2.9.6 4.5 1.2 2.5-2.3 4.9-4.7 7.2-7.2-.6-1.6-.9-3.1-1.2-4.5l-20.2-24.4 29.8 13.6c1 0 2.1 0 3.3.1 1.9-2.9 3.6-5.8 5.2-8.9-1.2-1.8-2.1-3.5-2.7-5l-25.2-17.9 33 5.6c.8-.2 1.6-.4 2.5-.6 1.1-3.3 2-6.7 2.8-10.2-1.6-1.5-2.9-2.9-3.8-4.2l-29-10.8 32.3-3.1c1-.6 2-1.3 3.2-1.9 0-1.8.1-3.7.1-5.5z" fill="url(#SVGID_2_)"/>
      <linearGradient id="SVGID_3_" gradientUnits="userSpaceOnUse" x1="115.001" y1="232" x2="115.001" y2="2" gradientTransform="matrix(1 0 0 -1 0 232)">
        <stop offset="0" stop-color="#fff"/>
        <stop offset="1" stop-color="#4d4d4d"/>
      </linearGradient>
      <path d="M229.9 111.5l-65.4-3 62.3-19.8c-.5-2.3-1.1-4.5-1.8-6.7l-63.9 14 55.1-35.3c-1.1-2.1-2.3-4.1-3.5-6l-58.1 30 44.1-48.4c-1.6-1.7-3.2-3.3-4.9-4.9l-48.4 44.1 30-58.1c-2-1.2-4-2.4-6-3.5L134.1 69l14-63.9c-2.2-.7-4.5-1.3-6.7-1.8l-19.8 62.3-3-65.4c-1.3-.2-2.4-.2-3.6-.2s-2.3 0-3.5.1l-3 65.4L88.6 3.1c-2.3.5-4.5 1.1-6.7 1.8l14 63.9-35.3-55.1c-2.1 1.1-4.1 2.3-6 3.5l30 58.1-48.4-44c-1.7 1.6-3.3 3.2-4.9 4.9l44.1 48.4-58.1-30c-1.2 2-2.4 4-3.5 6l55.1 35.3L5 81.9c-.7 2.2-1.3 4.5-1.8 6.7l62.3 19.8-65.4 3c0 1.2-.1 2.3-.1 3.5s0 2.3.1 3.5l65.4 3-62.4 20c.5 2.3 1.1 4.5 1.8 6.7l63.9-14-55.1 35.3c1.1 2.1 2.3 4.1 3.5 6l58.1-30-44.1 48.4c1.6 1.7 3.2 3.3 4.9 4.9l48.4-44.1-30 58.1c2 1.2 4 2.4 6 3.5l35.3-55.1-14 63.9c2.2.7 4.5 1.3 6.7 1.8l19.8-62.3 3 65.4c1.2 0 2.3.1 3.5.1s2.3 0 3.5-.1l3-65.4 19.8 62.3c2.3-.5 4.5-1.1 6.7-1.8l-14-63.9 35.3 55.1c2.1-1.1 4.1-2.3 6-3.5l-30-58.1 48.4 44.1c1.7-1.6 3.3-3.2 4.9-4.9l-44.1-48.4 58.1 30c1.2-2 2.4-4 3.5-6l-55.1-35.3 63.9 14c.7-2.2 1.3-4.5 1.8-6.7l-62.3-19.8 65.4-3c0-1.2.1-2.3.1-3.5s.3-2.4.2-3.6z" fill="url(#SVGID_3_)"/>
      <linearGradient id="SVGID_4_" gradientUnits="userSpaceOnUse" x1="38.986" y1="193.014" x2="191.014" y2="40.986" gradientTransform="matrix(1 0 0 -1 0 232)">
        <stop offset="0" stop-color="#fff"/>
        <stop offset="1" stop-color="#333"/>
      </linearGradient>
      <circle cx="115" cy="115" r="107.5" fill="url(#SVGID_4_)"/>
      <linearGradient id="SVGID_5_" gradientUnits="userSpaceOnUse" x1="39.789" y1="192.211" x2="190.211" y2="41.789" gradientTransform="matrix(1 0 0 -1 0 232)">
        <stop offset="0" stop-color="#fff"/>
        <stop offset="1" stop-color="#414141"/>
      </linearGradient>
      <circle cx="115" cy="115" r="106.4" fill="url(#SVGID_5_)"/>
      <linearGradient id="SVGID_6_" gradientUnits="userSpaceOnUse" x1="40.593" y1="191.407" x2="189.407" y2="42.593" gradientTransform="matrix(1 0 0 -1 0 232)">
        <stop offset="0" stop-color="#fff"/>
        <stop offset="1" stop-color="#4f4f4f"/>
      </linearGradient>
      <circle cx="115" cy="115" r="105.2" fill="url(#SVGID_6_)"/>
      <linearGradient id="SVGID_7_" gradientUnits="userSpaceOnUse" x1="41.397" y1="190.603" x2="188.603" y2="43.397" gradientTransform="matrix(1 0 0 -1 0 232)">
        <stop offset="0" stop-color="#fff"/>
        <stop offset="1" stop-color="#5d5d5d"/>
      </linearGradient>
      <circle cx="115" cy="115" r="104.1" fill="url(#SVGID_7_)"/>
      <linearGradient id="SVGID_8_" gradientUnits="userSpaceOnUse" x1="42.2" y1="189.8" x2="187.8" y2="44.2" gradientTransform="matrix(1 0 0 -1 0 232)">
        <stop offset="0" stop-color="#fff"/>
        <stop offset="1" stop-color="#6b6b6b"/>
      </linearGradient>
      <circle cx="115" cy="115" r="103" fill="url(#SVGID_8_)"/>
      <linearGradient id="SVGID_9_" gradientUnits="userSpaceOnUse" x1="43.004" y1="188.996" x2="186.996" y2="45.004" gradientTransform="matrix(1 0 0 -1 0 232)">
        <stop offset="0" stop-color="#fff"/>
        <stop offset="1" stop-color="#797979"/>
      </linearGradient>
      <circle cx="115" cy="115" r="101.8" fill="url(#SVGID_9_)"/>
      <linearGradient id="SVGID_10_" gradientUnits="userSpaceOnUse" x1="43.807" y1="188.193" x2="186.193" y2="45.807" gradientTransform="matrix(1 0 0 -1 0 232)">
        <stop offset="0" stop-color="#fff"/>
        <stop offset="1" stop-color="#868686"/>
      </linearGradient>
      <circle cx="115" cy="115" r="100.7" fill="url(#SVGID_10_)"/>
      <linearGradient id="SVGID_11_" gradientUnits="userSpaceOnUse" x1="44.611" y1="187.389" x2="185.389" y2="46.611" gradientTransform="matrix(1 0 0 -1 0 232)">
        <stop offset="0" stop-color="#fff"/>
        <stop offset="1" stop-color="#949494"/>
      </linearGradient>
      <circle cx="115" cy="115" r="99.5" fill="url(#SVGID_11_)"/>
      <linearGradient id="SVGID_12_" gradientUnits="userSpaceOnUse" x1="45.414" y1="186.586" x2="184.586" y2="47.414" gradientTransform="matrix(1 0 0 -1 0 232)">
        <stop offset="0" stop-color="#fff"/>
        <stop offset="1" stop-color="#a2a2a2"/>
      </linearGradient>
      <circle cx="115" cy="115" r="98.4" fill="url(#SVGID_12_)"/>
      <linearGradient id="SVGID_13_" gradientUnits="userSpaceOnUse" x1="46.218" y1="185.782" x2="183.782" y2="48.218" gradientTransform="matrix(1 0 0 -1 0 232)">
        <stop offset="0" stop-color="#fff"/>
        <stop offset="1" stop-color="#b0b0b0"/>
      </linearGradient>
      <circle cx="115" cy="115" r="97.3" fill="url(#SVGID_13_)"/>
      <linearGradient id="SVGID_14_" gradientUnits="userSpaceOnUse" x1="47.022" y1="184.978" x2="182.978" y2="49.022" gradientTransform="matrix(1 0 0 -1 0 232)">
        <stop offset="0" stop-color="#fff"/>
        <stop offset="1" stop-color="#bebebe"/>
      </linearGradient>
      <circle cx="115" cy="115" r="96.1" fill="url(#SVGID_14_)"/>
      <linearGradient id="SVGID_15_" gradientUnits="userSpaceOnUse" x1="47.825" y1="184.175" x2="182.175" y2="49.825" gradientTransform="matrix(1 0 0 -1 0 232)">
        <stop offset="0" stop-color="#fff"/>
        <stop offset="1" stop-color="#ccc"/>
      </linearGradient>
      <circle cx="115" cy="115" r="95" fill="url(#SVGID_15_)"/>
    </g>
    <path id="Cap_Color" d="M216.8 168.5c-1.6 3-3.3 6-5.2 8.9-12-.8-15.6 3.9-11.7 15.2-2.3 2.5-4.7 4.9-7.2 7.2-11.4-3.8-16-.2-15.2 11.7-2.9 1.9-5.8 3.6-8.9 5.2-10.1-6.6-15.5-4.2-17.9 7.6-3.3 1.1-6.7 2-10.2 2.8-8.2-8.9-14.3-8.1-20 2.7-1.8.1-3.6.1-5.5.1s-3.7-.1-5.5-.1c-5.7-10.8-11.8-11.6-20-2.7-3.4-.8-6.8-1.7-10.2-2.8-2.4-11.8-7.9-14.1-17.9-7.6-3-1.6-6-3.3-8.9-5.2.8-12-3.9-15.6-15.2-11.7-2.5-2.3-4.9-4.7-7.2-7.2 3.8-11.4.2-16-11.7-15.2-1.9-2.9-3.6-5.8-5.2-8.9 3.1-4.8 4.2-8.5 3.2-11.4h197.1c-.9 2.9.2 6.6 3.3 11.4zM16.7 72.1h196.6c-.6-2.8.6-6.3 3.5-10.6-1.6-3-3.3-6-5.2-8.9-12 .8-15.6-3.9-11.7-15.2-2.3-2.5-4.7-4.9-7.2-7.2-11.4 3.8-16 .2-15.2-11.7-2.9-1.9-5.8-3.6-8.9-5.2-10.1 6.6-15.5 4.2-17.9-7.6-3.3-1.1-6.7-2-10.2-2.8-8.2 8.9-14.3 8.1-20-2.7-1.8-.1-3.7-.2-5.5-.2s-3.7.1-5.5.1c-5.7 10.8-11.8 11.6-20 2.7-3.4.8-6.8 1.7-10.2 2.8-2.4 11.8-7.9 14.1-17.9 7.6-3 1.6-6 3.3-8.9 5.2.8 12-3.9 15.5-15.2 11.7-2.5 2.3-4.9 4.7-7.2 7.2 3.8 11.4.2 16-11.7 15.2-1.9 2.9-3.6 5.8-5.2 8.9 2.9 4.4 4 7.9 3.5 10.7z" style="mix-blend-mode: multiply" fill="#bc00bf"/>
    <linearGradient id="Highlight_1_" gradientUnits="userSpaceOnUse" x1="44.289" y1="187.71" x2="117.501" y2="114.499" gradientTransform="matrix(1 0 0 -1 0 232)">
      <stop offset="0" stop-color="#fff" stop-opacity=".6"/>
      <stop offset="1" stop-color="#fff" stop-opacity="0"/>
    </linearGradient>
    <path id="Highlight" d="M20 120C20 64.8 64.8 20 120 20c26.3 0 50.3 10.2 68.2 26.8C169.9 27.3 143.9 15 115 15 59.8 15 15 59.8 15 115c0 28.9 12.3 54.9 31.8 73.2C30.2 170.3 20 146.3 20 120z" fill="url(#Highlight_1_)"/>
  </g>
  <path id="Label" style="fill: #fff; opacity: .8" d="M53.2 164.3h4.2c.7 0 1.4.1 2.1.5.7.3 1.2.7 1.7 1.2s.9 1.1 1.2 1.7c.3.7.4 1.4.4 2.1 0 .7-.1 1.4-.4 2.1-.3.7-.7 1.2-1.2 1.8s-1.1.9-1.7 1.2c-.7.3-1.4.5-2.1.5h-4.2v-11.1zm2.9 8.5h.7c.5 0 .9-.1 1.3-.2.4-.2.7-.4 1-.6.3-.3.5-.6.6-1 .1-.4.2-.8.2-1.2 0-.4-.1-.8-.2-1.2-.1-.4-.4-.7-.6-1-.3-.3-.6-.5-1-.6-.4-.2-.8-.2-1.3-.2h-.7v6zm14.8-6.1h-3.4v1.8h3.2v2.4h-3.2v1.9h3.4v2.4h-6.2v-11h6.2v2.5zm8.1.4c-.3-.3-.6-.4-.9-.6-.3-.1-.6-.2-.9-.2-.4 0-.7.1-.9.3s-.3.4-.3.7c0 .2.1.4.2.5.1.1.3.2.5.3.2.1.4.2.6.2.2.1.5.1.7.2.9.3 1.6.7 2 1.2.4.5.6 1.2.6 2 0 .6-.1 1.1-.3 1.5-.2.5-.5.8-.8 1.2-.4.3-.8.6-1.3.8s-1.1.3-1.8.3c-1.4 0-2.7-.4-3.9-1.2l1.2-2.3c.4.4.8.7 1.3.8.4.2.8.3 1.2.3.5 0 .8-.1 1-.3.2-.2.3-.5.3-.7 0-.2 0-.3-.1-.4l-.3-.3c-.1-.1-.3-.2-.5-.3-.2-.1-.5-.2-.8-.3-.4-.1-.7-.2-1.1-.4-.4-.1-.7-.3-.9-.6-.3-.2-.5-.5-.7-.9-.2-.4-.3-.8-.3-1.3s.1-1 .3-1.5c.2-.4.4-.8.8-1.1.3-.3.7-.6 1.2-.7.5-.2 1-.3 1.6-.3.5 0 1.1.1 1.7.2.6.1 1.2.4 1.7.7l-1.1 2.2zm6.2-2.8v11h-2.9v-11h2.9zm7.7 4.8h5.7c0 .6 0 1.1-.1 1.6 0 .5-.1.9-.3 1.3-.2.6-.5 1.1-.8 1.5-.3.4-.8.8-1.2 1.1-.5.3-1 .5-1.6.7-.6.2-1.2.2-1.8.2-.9 0-1.6-.1-2.3-.4-.7-.3-1.3-.7-1.8-1.2s-.9-1.1-1.2-1.8c-.3-.7-.4-1.5-.4-2.4 0-.9.1-1.6.4-2.4.3-.7.7-1.3 1.2-1.8s1.1-.9 1.8-1.2c.7-.3 1.5-.4 2.4-.4 1.1 0 2.2.2 3 .7.9.5 1.5 1.3 2.1 2.3l-2.7 1.1c-.3-.6-.6-1-1-1.3s-.9-.4-1.4-.4c-.4 0-.8.1-1.2.2s-.6.4-.9.7c-.2.3-.4.7-.6 1.1-.1.4-.2.9-.2 1.4 0 .5.1.9.2 1.3s.3.7.5 1c.2.3.5.5.9.7.4.2.8.2 1.3.2.3 0 .6 0 .8-.1s.5-.2.7-.3c.2-.1.4-.3.5-.5s.2-.5.3-.8h-2.3v-2.1zm7.4 6.1v-11h2.9l5.3 6.7v-6.7h2.8v11h-2.8l-5.3-6.7v6.7h-2.9zm24.3-8.1c-.3-.3-.6-.4-.9-.6-.3-.1-.6-.2-.9-.2-.4 0-.7.1-.9.3-.2.2-.3.4-.3.7 0 .2.1.4.2.5.1.1.3.2.5.3.2.1.4.2.6.2.2.1.5.1.7.2.9.3 1.6.7 2 1.2.4.5.6 1.2.6 2 0 .6-.1 1.1-.3 1.5-.2.5-.5.8-.8 1.2-.4.3-.8.6-1.3.8-.5.2-1.1.3-1.8.3-1.4 0-2.7-.4-3.9-1.2l1.2-2.3c.4.4.8.7 1.3.8.4.2.8.3 1.2.3.5 0 .8-.1 1-.3.2-.2.3-.5.3-.7 0-.2 0-.3-.1-.4l-.3-.3c-.1-.1-.3-.2-.5-.3-.2-.1-.5-.2-.8-.3-.4-.1-.7-.2-1.1-.4-.4-.1-.7-.3-.9-.6-.3-.2-.5-.5-.7-.9s-.3-.8-.3-1.3.1-1 .3-1.5c.2-.4.4-.8.8-1.1.3-.3.7-.6 1.2-.7.5-.2 1-.3 1.6-.3.5 0 1.1.1 1.7.2.6.1 1.2.4 1.7.7l-1.1 2.2zm6 2.9l-4-5.7h3.4l2 3 2-3h3.4l-4 5.7v5.3h-2.9l.1-5.3zm13.4-2.9c-.3-.3-.6-.4-.9-.6-.3-.1-.6-.2-.9-.2-.4 0-.7.1-.9.3-.2.2-.3.4-.3.7 0 .2.1.4.2.5.1.1.3.2.5.3.2.1.4.2.6.2.2.1.5.1.7.2.9.3 1.6.7 2 1.2.4.5.6 1.2.6 2 0 .6-.1 1.1-.3 1.5-.2.5-.5.8-.8 1.2-.4.3-.8.6-1.3.8-.5.2-1.1.3-1.8.3-1.4 0-2.7-.4-3.9-1.2l1.2-2.3c.4.4.9.7 1.3.8.4.2.8.3 1.2.3.5 0 .8-.1 1-.3.2-.2.3-.5.3-.7 0-.2 0-.3-.1-.4l-.3-.3c-.1-.1-.3-.2-.5-.3s-.5-.2-.8-.3c-.4-.1-.7-.2-1.1-.4-.4-.1-.7-.3-.9-.6-.3-.2-.5-.5-.7-.9-.2-.4-.3-.8-.3-1.3s.1-1 .3-1.5c.2-.4.4-.8.8-1.1.3-.3.7-.6 1.2-.7.5-.2 1-.3 1.6-.3.5 0 1.1.1 1.7.2.6.1 1.2.4 1.7.7l-1.1 2.2zm7.6-.4v8.6h-2.9v-8.6h-2.3v-2.4h7.5v2.4h-2.3zm9.9 0h-3.4v1.8h3.2v2.4h-3.2v1.9h3.4v2.4h-6.2v-11h6.2v2.5zm1.5 8.5l1.9-11h2.8l2.2 5.9 2.2-5.9h2.8l1.9 11H174l-.9-6.3-2.6 6.3h-1.1l-2.5-6.3-.9 6.3h-3zm-72.5 22l2.9.8-.2.8-1-.3-1.6 5.8-.9-.2 1.6-5.8-1-.3.2-.8zm3.3.9l1.2.3c.5.1.8.3 1 .6.2.4.3.9.1 1.5-.1.5-.3.8-.5 1.1-.2.2-.5.4-.8.4l.5 3.5-.9-.2-.4-3.5-.8 3.2-.9-.2 1.5-6.7zm.2 3.1c.3.1.6.1.8-.1.2-.1.3-.4.4-.8 0-.2.1-.4.1-.5s0-.3-.1-.4c0-.1-.1-.2-.2-.3-.1-.1-.2-.1-.3-.1h-.1l-.6 2.2zm4.3-2.1l.7.1.1 6.9-.9-.2v-1.3l-1.3-.3-.5 1.2-.9-.2 2.8-6.2zm0 4.8v-1.1c0-.7 0-1.5.1-2.4-.1.4-.2.8-.4 1.2-.1.4-.3.8-.5 1.3l-.3.8 1.1.2zm2.5-4.3l1.1.2c.3.1.6.1.8.2.2.1.4.3.5.5.2.3.3.7.4 1.2 0 .4 0 1.1-.1 1.9-.1.7-.3 1.3-.4 1.8-.2.4-.4.7-.7.9-.4.2-1 .3-1.8.2l-.7-.1.9-6.8zm.1 6c.6.1.9 0 1.2-.3.2-.3.4-.9.6-1.9.2-1 .2-1.8 0-2.2-.1-.4-.4-.7-.9-.7h-.1l-.8 5.1zm4-5.5l2.4.3-.1.8-1.5-.2-.2 2.1 1.3.1-.1.8-1.3-.1-.2 2.3 1.5.2-.1.8-2.4-.3.7-6.8zm5.2.5h.8l.5 2.8c.1.3.1.7.2 1 0 .3.1.7.1 1.1v-.1-.1l.2-.8.1-.7.1-.5.6-2.7h.8l.4 6.8h-.9l-.1-2.3v-.3V202.9v-.1.1c0 .2-.1.3-.1.4 0 .1 0 .2-.1.3l-.1.6-.1.2-.7 2.9h-.6l-.4-2.6c-.1-.3-.1-.7-.2-1 0-.4-.1-.7-.1-1.1l-.4 4.7h-.9l.9-6.7zm5.6.1h.7l1.6 6.8h-.9l-.3-1.3h-1.3l-.2 1.3h-.9l1.3-6.8zm1 4.8l-.2-1.1c-.1-.7-.3-1.5-.4-2.4 0 .4-.1.8-.1 1.2-.1.4-.1.9-.2 1.3l-.2.9 1.1.1zm1.6-4.8l1.2-.1c.5 0 .9.1 1.1.3.3.3.5.8.5 1.4 0 .5 0 .9-.2 1.2s-.4.5-.7.6l1.4 3.2-.9.1-1.4-3.3.2 3.3h-.9l-.3-6.7zm1.1 2.9c.4 0 .6-.1.7-.3.1-.2.2-.5.2-.8 0-.2 0-.4-.1-.5 0-.1-.1-.3-.2-.4-.1-.1-.2-.2-.3-.2-.1 0-.2-.1-.4 0h-.2l.3 2.2zm2.6-3.2l.9-.1.3 3.3 1-3.4.9-.1-1 3.4 1.8 3.3-1 .1-1.6-3.4.3 3.5-.9.1-.7-6.7zm5.5-.6l1.2-.2c.5-.1.9 0 1.2.2.4.3.6.7.7 1.3.1.5.1.9-.1 1.2s-.3.5-.6.7l1.8 3.1-.9.1-1.8-3.1.5 3.3-.9.1-1.1-6.7zm1.3 2.8c.4-.1.6-.2.7-.4s.1-.5.1-.9c0-.2-.1-.4-.1-.5s-.1-.3-.2-.3-.2-.1-.3-.2H128.4l.4 2.3zm2.3-3.4l2.4-.5.2.8-1.5.3.4 2.1 1.3-.3.2.8-1.3.3.5 2.3 1.5-.3.2.8-2.4.5-1.5-6.8zm5.4 2.1l1.6-.4.1.3c.3 1.3.4 2.2.3 2.7-.1.5-.5.8-1.1 1-.6.2-1.1 0-1.5-.4-.4-.4-.7-1.3-1-2.5-.3-1.4-.4-2.3-.2-2.9.2-.5.5-.8 1.1-1 .4-.1.8-.1 1.1.1.3.1.6.4.8.9l-.7.6c-.1-.2-.2-.3-.2-.4-.1-.1-.1-.2-.2-.2-.1-.1-.3-.1-.5-.1-.3.1-.5.3-.5.7 0 .4.1 1.1.3 2.1.2 1 .5 1.7.7 2 .2.3.5.4.8.4.3-.1.4-.2.5-.5.1-.3 0-.7-.1-1.3V202.1l-.8.2-.5-1zm3.6 1.7c.1 0 .3 0 .4.1l.3.3v.4l-.3.3h-.2c-.1 0-.1 0-.2-.1-.1 0-.1-.1-.2-.1 0-.1-.1-.1-.1-.2v-.4c.1-.2.2-.3.3-.3zM52.4 50.8l.9-.8c.4-.4.8-.6 1.2-.6.4 0 .8.3 1.3.7.6.7.8 1.3.6 1.8-.1.3-.3.6-.7.9l2.1 2.2-.7.6-4.7-4.8zm2.7 1.6c.3-.3.4-.5.4-.7 0-.2-.1-.5-.4-.8-.3-.3-.5-.5-.8-.5s-.5 0-.7.3l-.1.1 1.6 1.6zm0-4.1l.9-.8c.4-.3.7-.5 1.1-.5.4 0 .9.3 1.3.8.3.4.5.7.6 1s0 .6-.2.9l3.1 1.7-.7.6-3.1-1.7 2.2 2.5-.7.6-4.5-5.1zm2.7 1.6c.3-.2.4-.5.4-.7s-.1-.5-.4-.8c-.1-.2-.3-.3-.4-.4s-.2-.2-.3-.2h-.3c-.1 0-.2.1-.3.2l-.1.1 1.4 1.8zm5.1-3.5c.7.9 1.2 1.7 1.3 2.2.1.6-.1 1-.6 1.4-.5.4-1 .5-1.6.2-.5-.2-1.2-.9-2.1-2-.8-.9-1.2-1.7-1.3-2.2-.1-.6.1-1 .6-1.4.4-.4.9-.5 1.4-.3.3.1.6.3 1 .6.3.3.8.8 1.3 1.5zm-.7.7c-.7-.9-1.3-1.5-1.6-1.7-.3-.2-.6-.3-.9-.1s-.3.5-.2.8c.1.3.5.9 1.2 1.8.6.8 1.1 1.3 1.4 1.5.3.2.6.2.8 0 .2-.2.3-.5.2-.8 0-.3-.3-.8-.9-1.5zm-1.1-3.8l.7-.5 1.8 1.8.3.3.7.7.3.3.3.3.2.2c0-.1-.1-.1-.1-.2 0 0 0-.1-.1-.1l-.2-.7-.5-.9c0-.1-.1-.2-.1-.2 0-.1-.1-.1-.1-.2l-1.1-2.3.7-.5 2.9 6.3-.6.4-5.1-4.7zm3.3-2.4l.8-.5L69 46l-.8.5-3.8-5.6zm3.3-2.2l1.1-.6c.8-.5 1.6-.2 2.2.8.2.4.4.7.4 1 0 .3-.1.5-.3.8.4-.1.7 0 .9.1.2.1.5.4.7.8.6 1.1.5 1.9-.4 2.4l-1 .6-3.6-5.9zm2.3 2.1c.3-.2.5-.4.5-.6 0-.2-.1-.5-.3-.9-.4-.6-.8-.8-1.2-.5h-.1l1.1 2zm1.6 2.6c.3-.2.5-.4.5-.6 0-.2-.1-.5-.3-.9-.2-.4-.4-.6-.7-.7-.2-.1-.5 0-.8.2l1.3 2zm4.1-5.2c.6 1.1.9 1.9.9 2.4 0 .6-.3 1-.8 1.3-.6.3-1.1.3-1.6 0s-1.1-1.1-1.7-2.3c-.6-1.1-.9-1.9-.9-2.4 0-.6.3-1 .8-1.3.5-.3 1-.3 1.4-.1.3.1.6.4.9.8.3.3.6.9 1 1.6zm-.8.6c-.6-1-1-1.7-1.3-2-.3-.3-.6-.4-.8-.2-.3.2-.4.4-.3.8.1.4.4 1 .9 2 .5.9.9 1.4 1.1 1.7.3.3.5.3.8.2.3-.1.4-.4.3-.8 0-.4-.2-.9-.7-1.7zm-.4-4l2.7-1.3.4.7-.9.5 2.6 5.4-.8.4-2.6-5.4-.9.5-.5-.8zm2.8-1.3l2.7-1.2.3.7-.9.4 2.5 5.5-.8.4-2.5-5.5-1 .4-.3-.7zm3.3-1.5l.8-.3 2.3 5.6 1.4-.6.3.7-2.2.9-2.6-6.3zm2.9-1.1l.9-.3 2.4 6.3-.9.3-2.4-6.3zm1.9-.8l.8-.3 1.7 2.3c.5.6 1 1.3 1.4 2.1-.2-.5-.4-.9-.6-1.3-.2-.4-.3-.8-.4-1.1l-.8-2.4.9-.3 2.2 6.4-.8.3-1.9-2.6c-.2-.2-.4-.5-.5-.7s-.4-.5-.6-.8c0 0 0-.1-.1-.1s-.1-.1-.1-.2c0 .1.1.1.1.2 0 0 0 .1.1.1l.3.6.3.8s0 .1.1.2 0 .1.1.2l1 2.8-.9.3-2.3-6.5zm6.7 1.3l1.6-.5.1.3c.4 1.3.5 2.2.4 2.7-.1.5-.4.9-1 1-.6.2-1.1 0-1.5-.4-.4-.4-.8-1.2-1.1-2.4-.4-1.4-.5-2.3-.3-2.9.1-.5.5-.8 1.1-1 .4-.1.8-.1 1.1 0 .3.1.6.4.9.9l-.7.6c-.1-.2-.2-.3-.2-.4l-.2-.2c-.1-.1-.3-.1-.5-.1-.3.1-.4.3-.4.7 0 .4.1 1.1.4 2.1.3 1 .5 1.6.7 2 .2.3.5.4.8.3.3-.1.4-.3.5-.5 0-.3 0-.7-.2-1.3l-.1-.2V32l-.8.2-.6-.8zm6.3-4.7l.2.8c-.3-.1-.5-.1-.6 0-.2 0-.4.1-.5.3s-.2.3-.3.6c-.1.2-.1.5 0 .9 0 .3.1.7.2 1.2.4 1.6.9 2.4 1.8 2.2.1 0 .3-.1.5-.3l.2.8c-.2.2-.4.3-.7.3-1.3.3-2.3-.7-2.7-2.9-.3-1.2-.3-2.1-.1-2.8.2-.6.6-1 1.3-1.2.1 0 .4 0 .7.1zm4.8 2.6c.2 1.2.2 2 0 2.6-.2.5-.6.9-1.2 1-.7.1-1.2-.1-1.5-.6-.4-.5-.6-1.4-.9-2.7-.2-1.2-.2-2.1 0-2.6s.6-.9 1.2-1c.6-.1 1 0 1.3.4.2.2.4.6.6 1 .2.5.3 1.1.5 1.9zm-1 .3c-.2-1.2-.4-1.9-.5-2.3-.2-.4-.4-.5-.7-.5-.3.1-.5.3-.6.6 0 .4 0 1.1.2 2.1s.3 1.6.5 2c.2.3.4.5.7.4.3-.1.5-.3.5-.6.1-.2.1-.8-.1-1.7zm2.6 1.8c.1 0 .3 0 .4.1.1.1.2.2.2.4s0 .3-.1.4c-.1.1-.2.2-.4.2h-.2c-.1 0-.1 0-.2-.1-.1 0-.1-.1-.1-.2s-.1-.1-.1-.2 0-.3.1-.4c.1-.2.2-.2.4-.2zM114 25v.8c-.2-.1-.4-.2-.6-.1-.2 0-.4.1-.6.2-.2.1-.3.3-.4.5-.1.2-.2.5-.2.9v1.2c.1 1.7.5 2.5 1.4 2.5.1 0 .3-.1.5-.2v.8c-.2.1-.5.2-.7.2-1.4.1-2.1-1-2.2-3.3 0-1.2.1-2.1.4-2.7s.8-.9 1.5-.9c.4-.1.7-.1.9.1zm1-.2h.9v2.7h1.3v-2.7h.9l-.1 6.8h-.9l.1-3.4h-1.3l-.1 3.4h-.9l.1-6.8zm4.3.1h.9l-.3 6.8h-.9l.3-6.8zm4.7.4l-.1.8c-.2-.1-.4-.2-.6-.2-.2 0-.4 0-.6.1s-.3.3-.4.5c-.1.2-.2.5-.3.8-.1.3-.1.7-.2 1.2-.1 1.7.3 2.5 1.1 2.6.1 0 .3 0 .5-.1l-.1.8c-.2.1-.5.2-.7.1-1.4-.1-2-1.3-1.8-3.5.1-1.2.3-2.1.7-2.7.4-.6.9-.8 1.6-.8.5.1.7.2.9.4zm2.2.1l.7.1.7 6.9-.9-.1-.1-1.3-1.3-.1-.4 1.3-.9-.1 2.2-6.7zm.3 4.8l-.1-1.1c-.1-.7-.1-1.5-.1-2.4l-.3 1.2c-.1.4-.2.8-.4 1.3l-.3.8 1.2.2zm3.6-1.1l1.6.3v.3c-.2 1.3-.5 2.2-.8 2.6-.3.4-.8.6-1.4.5-.6-.1-1.1-.4-1.2-1-.2-.6-.2-1.5 0-2.7.2-1.4.5-2.3.9-2.7.3-.4.8-.5 1.4-.5.4.1.8.2 1 .5.2.3.4.6.4 1.1l-.9.2c0-.2 0-.3-.1-.5s0-.2 0-.3c-.1-.2-.2-.2-.5-.3-.3 0-.5.1-.7.5-.2.4-.3 1.1-.5 2.1s-.2 1.7-.2 2.1c.1.4.2.6.6.6.3 0 .5 0 .7-.3.2-.3.3-.7.4-1.3V30l-.8-.1.1-.8zm5.8 1.5c-.2 1.2-.5 2-.9 2.4-.4.4-.9.6-1.5.5-.6-.1-1-.5-1.2-1.1-.2-.6-.1-1.5.2-2.8.2-1.2.6-2 .9-2.4.4-.4.9-.6 1.5-.5.6.1.9.4 1.1.8.1.3.2.7.2 1.2 0 .4-.1 1.1-.3 1.9zm-.9-.1c.2-1.1.3-1.9.3-2.3 0-.4-.2-.6-.5-.7-.3-.1-.6.1-.7.4-.2.3-.4 1-.6 2.1-.2 1-.3 1.7-.3 2.1 0 .4.2.6.5.7.3.1.5-.1.7-.4.2-.4.4-1 .6-1.9zm1.5 2.6l.7.4-1.4 2.1-.4-.2 1.1-2.3zm5-4.7l.9.3-1.9 6.5-.9-.3 1.9-6.5zm1.9.6l.9.3-1.9 5.7 1.4.5-.2.7-2.3-.7 2.1-6.5zm3 .9l.9.3-2 5.7 1.4.5-.3.7-2.3-.8 2.3-6.4zm2.9 1.1l.9.3-2.5 6.3-.9-.3 2.5-6.3zm2 .8l.8.3-.2 2.8c-.1.8-.2 1.6-.3 2.5.1-.5.3-1 .4-1.4.1-.4.3-.8.4-1.1l1-2.3.8.4-2.7 6.2-.8-.3.3-3.2c0-.3.1-.6.1-.9s.1-.6.2-1v-.1-.2c0 .1 0 .1-.1.2v.1l-.2.7-.3.8s0 .1-.1.2-.1.1-.1.2l-1.1 2.7-.8-.4 2.7-6.2zm5.5 6.5c-.5 1.1-1 1.8-1.5 2.1s-1 .4-1.5.1c-.6-.3-.9-.7-.9-1.3 0-.6.3-1.5.9-2.7.5-1.1 1-1.8 1.5-2.1.5-.3 1-.4 1.5-.1.5.3.8.6.9 1.1 0 .3 0 .7-.1 1.2-.2.3-.5.9-.8 1.7zm-.9-.4c.5-1.1.8-1.8.9-2.2.1-.4 0-.7-.3-.8-.3-.1-.6-.1-.8.2-.3.3-.6.9-1.1 1.9-.4.9-.7 1.5-.8 1.9-.1.4.1.6.3.8.3.1.5.1.8-.2.2-.2.6-.8 1-1.6zm3.3-2.3l.8.4-3.2 6-.8-.4 3.2-6zm3.8 2.2l-.4.8c-.1-.3-.3-.5-.5-.6-.2-.1-.4-.1-.6-.1-.2.1-.4.2-.5.4-.1.2-.2.4-.2.6 0 .1 0 .3.1.4 0 .2.1.4.2.7.1.5.2.9.2 1.2 0 .3-.1.6-.3.9-.3.5-.6.8-1 .9-.4.1-.8.1-1.2-.1-.3-.2-.6-.5-.7-.8l.5-.8c.2.4.4.6.6.8.2.1.4.2.6.1.2-.1.4-.2.5-.5.1-.2.2-.4.2-.7v-.4c0-.2-.1-.3-.1-.5-.1-.3-.1-.6-.2-.8 0-.2-.1-.4-.1-.6 0-.3.1-.6.3-.9.3-.5.6-.8 1-.9.4-.1.8-.1 1.2.2 0 .2.2.5.4.7zm-1.8 5.6l.5.6-2 1.6-.3-.4 1.8-1.8zm6.2-2.9l.7.5-2.8 3.9c-.3.4-.4.7-.5.9 0 .2.1.4.3.5.2.2.4.2.6.1.2-.1.4-.3.6-.6l2.8-4 .7.5-2.8 4c-.4.6-.8.9-1.1 1-.4.1-.8 0-1.3-.3s-.7-.8-.7-1.2c0-.3.2-.8.7-1.4l2.8-3.9zm.3 7.3c.1.1.2.2.2.4 0 .1 0 .3-.1.4s-.2.2-.4.2c-.1 0-.3 0-.4-.1-.1 0-.1-.1-.1-.2s-.1-.1-.1-.2v-.2c0-.1 0-.1.1-.2s.2-.2.4-.2c.1 0 .3 0 .4.1zm6.4-2.1l-.6.7c-.1-.3-.2-.6-.4-.7-.2-.2-.4-.2-.6-.2-.2 0-.4.2-.6.4l-.3.6v.4c0 .2 0 .4.1.7.1.5 0 .9 0 1.2-.1.3-.2.6-.5.9-.3.4-.7.7-1.2.7-.4.1-.8 0-1.2-.3-.3-.2-.5-.5-.6-.9l.6-.7c.1.4.3.7.5.8.2.2.4.2.6.2.2 0 .4-.2.6-.4.2-.2.2-.4.3-.6v-.4-.6c0-.3-.1-.6-.1-.8v-.6c.1-.3.2-.6.4-.9.3-.4.7-.7 1.1-.7.4-.1.8 0 1.2.3.3.3.5.5.7.9zm-2.4 5.3c.1.1.2.2.2.4 0 .1 0 .3-.1.4-.1.1-.2.2-.4.2s-.3 0-.4-.1c-.1 0-.1-.1-.1-.2s-.1-.1-.1-.2v-.2c0-.1.1-.1.1-.2.1-.1.2-.2.4-.2.1-.1.3 0 .4.1zm5.6-2.7l.5.5-3.5 6-.7-.6.7-1.2-1-.9-1.1.8-.7-.6 5.8-4zm-2.5 4.1l.6-.9c.4-.6.8-1.3 1.3-2-.3.3-.6.5-.9.8-.3.3-.7.5-1.1.8l-.7.5.8.8zm1 2.3c.1.1.2.2.2.4 0 .1 0 .3-.2.4-.1.1-.2.2-.4.2s-.3-.1-.4-.2c-.1-.1-.1-.1-.1-.2v-.2-.2c0-.1.1-.1.1-.2.1-.1.2-.2.4-.2.2.1.3.1.4.2zM120 51.2l-1.4 9.6c-.2.5-1.5 1.2-3.5 1.2-2.1 0-3.6-.8-3.8-1.6H108.7c0 .3 0 .6.1.9.4 2 3 3.5 6.2 3.5 3.5 0 6.2-1.7 6.3-4l1.6-11.5c-.6 1-2.9 2-2.9 1.9m-4.9-10.4c-4.8 0-8.4 2.2-8.4 5.1 0 .3 1.8 12.7 1.8 12.7.1.7.2 1 .2 1h2.5s-.9-8-1.3-10.8l-.4-2.6-.1-.5c.3-.9 2.5-2.2 5.7-2.2 3.3 0 5.5 1.3 5.6 2.2v.1c0 .1 0 .2-.1.3-.2.5-.8 1-1.7 1.4-.8.3-2 .7-3.9.7-1.7 0-3.1-.4-3.9-.7-.2-.1-.5-.1-.5-.1l.4 2.9c1.4.5 2.7.6 4 .6 2.4 0 4.5-.5 6.1-1.5 1.1-.7 1.8-1.5 2.1-2.5v-.1l.1-.9c.2-2.9-3.4-5.1-8.2-5.1m13.9 9.6l-2.8 2.7 3.7-1.1 1 3.8 1-3.8 3.7 1.1-2.8-2.7 2.8-2.7-3.7 1.1-1-3.8-1 3.8-3.7-1.1 2.8 2.7zm11.5 6.2l-2.8 2.7 3.7-1.1 1 3.8 1-3.8 3.7 1.1-2.8-2.7 2.8-2.7-3.7 1.1-1-3.8-1 3.8-3.7-1.1 2.8 2.7zm-39.4-6.2l2.8 2.7-3.7-1.1-1 3.8-1-3.8-3.7 1.1 2.8-2.7-2.8-2.7 3.7 1.1 1-3.8 1 3.8 3.7-1.1-2.8 2.7zm-11.5 6.2l2.8 2.7-3.7-1.1-1 3.8-1-3.8-3.7 1.1 2.8-2.7-2.8-2.7 3.7 1.1 1-3.8 1 3.8 3.7-1.1-2.8 2.7z"/>
  <g id="Fizz_3_">
    <path id="Color_2_" class="st15" d="M51.8 147.5c-4.9.3-9.7.5-14.7.8.4-2.5.7-5 1.1-7.5 2.5-16.3 4.9-32.5 7.4-48.8.3-1.9.3-1.9 2.2-2 12.3-.6 24.6-1.3 36.8-1.9.5 0 1-.1 1.7-.1-.4 2.4-.8 4.7-1.2 7-8.5.4-16.9.9-25.4 1.3-.9 5.9-1.8 11.7-2.7 17.7 7.2-.4 14.3-.7 21.5-1.1-.4 2.4-.8 4.7-1.3 7.1-.5 0-1 .1-1.5.1-6.2.3-12.4.7-18.6.9-1 0-1.3.3-1.5 1.3-1.2 8.4-2.5 16.8-3.8 25.2zm73.1-15.3c7.5-.4 14.6-.8 21.8-1.1-.1.4-.1.7-.2.9l-3 9.9c-.2.6-.4.9-1.1.9-11.5.6-23 1.2-34.6 1.8-.1 0-.2 0-.7-.1 9.1-10.8 18.1-21.4 27.2-32.2-7 .4-13.7.7-20.7 1.1.2-1.1.3-2 .4-2.8.4-2.7.8-5.3 1.1-8 .1-.6.2-1 1-1 11.8-.6 23.5-1.2 35.3-1.8.1 0 .2 0 .6.2-8.9 10.6-17.9 21.2-27.1 32.2zm52.7-22.3c-6.7.3-13.4.7-20.3 1 .6-3.9 1.1-7.8 1.7-11.6 12.1-.6 24.2-1.2 36.3-1.9l.3.3c-8.9 10.7-17.9 21.3-27 32.2 7.4-.4 14.5-.7 21.8-1.1-.1.5-.2.8-.3 1.2l-3 9.6c-.2.6-.4 1-1.2 1-11.4.6-22.8 1.2-34.2 1.7h-1c9.2-10.9 18.1-21.4 27.1-32-.1-.2-.2-.3-.2-.4zm-72.6-7.8c-2.1 14.4-4.2 28.6-6.3 42.9-4.2.2-8.3.4-12.4.6.9-5.9 1.8-11.7 2.6-17.5 1.2-7.7 2.4-15.3 3.5-23 .2-1.2.6-1.6 1.7-1.7 3.5-.4 7.1-.9 10.9-1.3zm-2.8-6c2.5-.4 4.4-2.4 4.8-4.8.4-2.5-.7-4.7-2.9-5.8-2.2-1-4.5-1-6.6.1-2.5 1.2-3.5 3.9-2.6 6.7.8 2.7 3.3 4.2 6.3 4 .2-.1.6-.2 1-.2z"/>
    <path id="White_2_" class="st17" d="M49.8 145.5c-4.9.3-9.7.5-14.7.8.4-2.5.7-5 1.1-7.5 2.5-16.3 4.9-32.5 7.4-48.8.3-1.9.3-1.9 2.2-2 12.3-.6 24.6-1.3 36.8-1.9.5 0 1-.1 1.7-.1-.4 2.4-.8 4.7-1.2 7-8.5.4-16.9.9-25.4 1.3-.9 5.9-1.8 11.7-2.7 17.7 7.2-.4 14.3-.7 21.5-1.1-.4 2.4-.8 4.7-1.3 7.1-.5 0-1 .1-1.5.1-6.2.3-12.4.7-18.6.9-1 0-1.3.3-1.5 1.3-1.2 8.4-2.5 16.8-3.8 25.2zm73.1-15.3c7.5-.4 14.6-.8 21.8-1.1-.1.4-.1.7-.2.9l-3 9.9c-.2.6-.4.9-1.1.9-11.5.6-23 1.2-34.6 1.8-.1 0-.2 0-.7-.1 9.1-10.8 18.1-21.4 27.2-32.2-7 .4-13.7.7-20.7 1.1.2-1.1.3-2 .4-2.8.4-2.7.8-5.3 1.1-8 .1-.6.2-1 1-1 11.8-.6 23.5-1.2 35.3-1.8.1 0 .2 0 .6.2-8.9 10.6-17.9 21.2-27.1 32.2zm52.7-22.3c-6.7.3-13.4.7-20.3 1 .6-3.9 1.1-7.8 1.7-11.6 12.1-.6 24.2-1.2 36.3-1.9l.3.3c-8.9 10.7-17.9 21.3-27 32.2 7.4-.4 14.5-.7 21.8-1.1-.1.5-.2.8-.3 1.2l-3 9.6c-.2.6-.4 1-1.2 1-11.4.6-22.8 1.2-34.2 1.7h-1c9.2-10.9 18.1-21.4 27.1-32-.1-.2-.2-.3-.2-.4zm-72.6-7.8c-2.1 14.4-4.2 28.6-6.3 42.9-4.2.2-8.3.4-12.4.6.9-5.9 1.8-11.7 2.6-17.5 1.2-7.7 2.4-15.3 3.5-23 .2-1.2.6-1.6 1.7-1.7 3.5-.4 7.1-.9 10.9-1.3zm-2.8-6c2.5-.4 4.4-2.4 4.8-4.8.4-2.5-.7-4.7-2.9-5.8-2.2-1-4.5-1-6.6.1-2.5 1.2-3.5 3.9-2.6 6.7.8 2.7 3.3 4.2 6.3 4 .2-.1.6-.2 1-.2z"/>
    <path id="Black" d="M49.2 144.4c-4.9.3-9.7.5-14.7.8.4-2.5.7-5 1.1-7.5 2.5-16.3 4.9-32.5 7.4-48.8.3-1.9.3-1.9 2.2-2 12.2-.6 24.5-1.2 36.8-1.9.5 0 1-.1 1.7-.1-.4 2.4-.8 4.7-1.2 7-8.5.5-17 .9-25.5 1.4-.9 5.9-1.8 11.7-2.7 17.7 7.2-.4 14.3-.7 21.5-1.1-.4 2.4-.8 4.7-1.3 7.1-.5 0-1 .1-1.5.1-6.2.3-12.4.7-18.6.9-1 0-1.3.3-1.5 1.3-1.1 8.3-2.4 16.7-3.7 25.1zm73.1-15.4c7.5-.4 14.6-.8 21.8-1.1-.1.4-.1.7-.2.9l-3 9.9c-.2.6-.4.9-1.1.9-11.5.6-23 1.2-34.6 1.8-.1 0-.2 0-.7-.1 9.1-10.8 18.1-21.4 27.2-32.2-7 .4-13.7.7-20.7 1.1.2-1.1.3-2 .4-2.8.4-2.7.8-5.3 1.1-8 .1-.6.2-1 1-1 11.8-.6 23.5-1.2 35.3-1.8.1 0 .2 0 .6.2-8.9 10.6-17.9 21.3-27.1 32.2zm52.7-22.3c-6.7.3-13.4.7-20.3 1 .6-3.9 1.1-7.8 1.7-11.6 12.1-.6 24.2-1.2 36.3-1.9l.3.3c-8.9 10.7-17.9 21.3-27 32.2 7.4-.4 14.5-.7 21.8-1.1-.1.5-.2.8-.3 1.2l-3 9.6c-.2.6-.4 1-1.2 1-11.4.6-22.8 1.2-34.2 1.7h-1c9.2-10.9 18.1-21.4 27.1-32-.1-.1-.2-.3-.2-.4zm-72.6-7.8c-2.1 14.4-4.2 28.6-6.3 42.9-4.2.2-8.3.4-12.4.6.9-5.9 1.8-11.7 2.6-17.5 1.2-7.7 2.4-15.3 3.5-23 .2-1.2.6-1.6 1.7-1.7 3.5-.4 7.1-.8 10.9-1.3zM99.6 93c2.5-.4 4.4-2.4 4.8-4.8.4-2.5-.7-4.7-2.9-5.8-2.2-1-4.5-1-6.6.1-2.5 1.2-3.5 3.9-2.6 6.7.8 2.7 3.3 4.2 6.3 4 .2-.1.6-.2 1-.2z"/>
  </g>
</svg>
