<svg viewBox="0 0 32 32"><path d="M20.1 29c-.2 0-.4-.2-.4-.4V24c.1-1.1-.3-2.1-1-2.8-.1-.1-.1-.3-.1-.4.1-.2.2-.3.3-.3 3.6-.4 7.3-1.7 7.3-8 0-1.6-.6-3.1-1.7-4.2-.1-.1-.1-.3-.1-.4.5-1.3.5-2.7 0-4-.4 0-1.8.1-4.1 1.7-.1.1-.2.1-.3.1-2.7-.7-5.5-.7-8.2 0-.1 0-.2 0-.3-.1C9.1 4 7.8 3.9 7.3 3.8c-.5 1.3-.5 2.7 0 4 .1.2 0 .3-.1.4-1.1 1.1-1.7 2.6-1.7 4.2 0 6.2 3.7 7.5 7.3 8 .2 0 .3.1.3.3.1.1 0 .3-.1.4-.7.7-1.1 1.7-1 2.8v4.7c0 .2-.2.4-.4.4s-.4-.2-.4-.4v-3c-3.8 1-5.2-.8-6.4-2.3-.6-.7-1-1.3-1.7-1.5-.2-.1-.4-.3-.3-.5.2-.2.4-.4.6-.3.9.2 1.5 1 2.2 1.8 1.1 1.4 2.2 2.9 5.7 1.9V24c-.1-1 .2-2 .8-2.8-3.6-.6-7.3-2.2-7.3-8.7 0-1.7.6-3.3 1.7-4.6-.5-1.5-.5-3.2.1-4.6 0-.1.1-.2.3-.2.2 0 1.6-.4 4.9 1.7 2.7-.7 5.5-.7 8.2 0 3.2-2.1 4.7-1.8 4.9-1.7.1 0 .2.1.3.2.6 1.5.7 3.1.2 4.6 1.1 1.3 1.7 2.9 1.7 4.6 0 6.6-4 8.2-7.3 8.7.6.8.8 1.8.7 2.8v4.6c0 .2-.2.4-.4.4z"/></svg>