<svg viewBox="0 0 32 32"><circle cx="16" cy="16" r="14" fill="currentColor"/><path d="M16 9.3h3.3c2.2.1 3.2 1.2 3.3 3.3v6.6c-.1 2.2-1.1 3.2-3.3 3.3h-6.6c-2.2-.1-3.2-1.2-3.3-3.3v-3.3-3.3c.1-2.2 1.1-3.2 3.3-3.3H16zm0-1.5h-3.4C9.7 8 8 9.7 7.9 12.6v6.8c.1 3 1.8 4.6 4.8 4.8h6.8c3-.1 4.6-1.8 4.7-4.8V16v-3.4c-.1-3-1.8-4.6-4.7-4.8H16zm0 4c-2.3 0-4.2 1.9-4.2 4.2s1.9 4.2 4.2 4.2 4.2-1.9 4.2-4.2c0-2.3-1.9-4.2-4.2-4.2zm0 6.9c-1.5 0-2.7-1.2-2.7-2.7 0-1.5 1.2-2.7 2.7-2.7s2.7 1.2 2.7 2.7c0 1.5-1.2 2.7-2.7 2.7zm4.4-8c-.5 0-1 .4-1 1s.4 1 1 1c.5 0 1-.4 1-1s-.5-1-1-1z" fill="#fff"/></svg>