<svg viewBox="0 0 32 32"><circle cx="16" cy="16" r="14" fill="currentColor"/><path d="M15 12.3c.9 0 1.8.4 2.5 1.1.2.2.2.6 0 .9s-.6.2-.9 0c-.4-.4-1-.7-1.6-.7-.6 0-1.1.2-1.5.6l-.1.1-3.3 3.3c-.9.9-.9 2.4 0 3.3.9.9 2.3.9 3.2.1l.1-.1.4-.4c.2-.2.6-.2.9 0 .2.2.2.6 0 .8v.1l-.4.4c-1.4 1.4-3.6 1.4-5 0s-1.4-3.5-.1-4.9l.1-.1 3.3-3.3c.6-.8 1.5-1.2 2.4-1.2zm6.6-3.1c1.4 1.4 1.4 3.5.1 4.9l-.1.1-3.3 3.3c-.7.7-1.6 1.1-2.5 1.1-.9 0-1.8-.4-2.5-1.1-.2-.2-.2-.6 0-.9.2-.2.6-.2.9 0 .4.4 1 .7 1.6.7.6 0 1.1-.2 1.5-.6l.1-.1 3.3-3.3c.9-.9.9-2.4 0-3.3-.9-.9-2.3-.9-3.2-.1l-.1.1-.4.4c-.2.2-.6.2-.9 0-.2-.2-.2-.6 0-.8v-.1l.4-.4c1.5-1.3 3.8-1.3 5.1.1z" fill="#fff"/></svg>