<svg viewBox="0 0 64 32">
  <path d="M9.3 20.5c-2.6 0-4.6-2.1-4.6-4.7s2-4.7 4.6-4.7 4.6 2.1 4.6 4.7-2 4.7-4.6 4.7m.3-12.9c-2.4 0-3.9 1.1-4.8 2.2L3.1 8h-3v3.2h1.4V32h3.6v-9.9c.6.7 2.1 1.9 4.5 1.9 4.5 0 8-3.7 8-8.2 0-4.5-3.5-8.2-8-8.2m44.8.4l-4.3 11.8L45.8 8H42l6 15.6h4.2l6-15.6h-3.8zM34.9 20.5c-2.6 0-4.5-2.2-4.5-4.7s1.9-4.7 4.5-4.7 4.5 2.2 4.5 4.7-2 4.7-4.5 4.7m0-12.8c-4.4 0-8.2 3.5-8.2 8.1s3.7 8.2 8.2 8.2c4.4 0 8.1-3.6 8.1-8.2s-3.7-8.1-8.1-8.1M27 10.2c.3-.4.7-.8 1-1.2.2-.2.5-.4.7-.6-.3-.2-.7-.4-1.1-.5-.8-.3-1.6-.2-1.6-.2-1.7 0-3 .9-3.8 2L20.5 8h-2.9v3.2H19v12.4h3.6V14c0-1.4 1.4-2.5 2.9-2.5.2 0 .4 0 .6.1h.1c.2-.5.5-.9.8-1.4 0 .1 0 0 0 0M59.7 8l-1.2 3.2h1.3V20H59l-1.1 3.6h5.5V9.3L62.1 8h-2.4zm1.6-2.9c1.4 0 2.6-1.1 2.6-2.6S62.7 0 61.3 0c-1.4 0-2.6 1.2-2.6 2.6.1 1.4 1.2 2.5 2.6 2.5"/>
</svg>