<svg xmlns="http://www.w3.org/2000/svg" viewBox="0 0 34 24">
  <path d="M3.6 23.5c-1.7 0-3.1-1.4-3.1-3.2V3.7C.5 2 1.9.5 3.6.5h26.8c1.7 0 3.1 1.4 3.1 3.2v16.7c0 1.7-1.4 3.2-3.1 3.2H3.6z" fill="#1f72cd"/>
  <path d="M30.4 1C31.8 1 33 2.2 33 3.7v16.7c0 1.5-1.2 2.7-2.6 2.7H3.6C2.2 23 1 21.8 1 20.3V3.7C1 2.2 2.2 1 3.6 1h26.8m0-1H3.6C1.6 0 0 1.6 0 3.7v16.7c0 2 1.6 3.7 3.6 3.7h26.8c2 0 3.6-1.6 3.6-3.7V3.7C34 1.6 32.4 0 30.4 0z" fill="#d9d9d9"/>
  <path d="M6.1 8.5l-3.2 7.2h3.8l.5-1.2h1.1l.5 1.2H13v-.9l.4.9h2.2l.4-.9v.9h8.7l1.1-1.1 1 1.1h4.5l-3.2-3.6 3.2-3.6h-4.4l-1 1.1-1-1.1h-9.5l-.8 1.9-.8-1.9h-4v.9l-.5-.9H6.1zm.7 1h1.9l2.1 4.9V9.5h2l1.6 3.5L16 9.5h2v5.2h-1.2v-4.1L15 14.7h-1.1l-1.9-4v4.1H9.5L9 13.6H6.4L6 14.7H4.6l2.2-5.2zm17.3 0h-5v5.2H24l1.6-1.7 1.5 1.7h1.6l-2.3-2.6 2.3-2.6h-1.5l-1.6 1.7-1.5-1.7zm-16.4.9l-.9 2.1h1.7l-.8-2.1zm12.6 1.2v-.9h3.1l1.4 1.5-1.4 1.5h-3.1v-1H23v-1.1h-2.7z" fill-rule="evenodd" clip-rule="evenodd" fill="#fff"/>
</svg>
