<svg xmlns="http://www.w3.org/2000/svg" viewBox="0 0 34 24">
  <path d="M3.6 23.5c-1.7 0-3.1-1.4-3.1-3.2V3.7C.5 2 1.9.5 3.6.5h26.8c1.7 0 3.1 1.4 3.1 3.2v16.7c0 1.7-1.4 3.2-3.1 3.2H3.6z" fill="#fff"/>
  <path d="M30.4 1C31.8 1 33 2.2 33 3.7v16.7c0 1.5-1.2 2.7-2.6 2.7H3.6C2.2 23 1 21.8 1 20.3V3.7C1 2.2 2.2 1 3.6 1h26.8m0-1H3.6C1.6 0 0 1.6 0 3.7v16.7c0 2 1.6 3.7 3.6 3.7h26.8c2 0 3.6-1.6 3.6-3.7V3.7C34 1.6 32.4 0 30.4 0z" fill="#d9d9d9"/>
  <path d="M14 23l19-5.8v3.1c0 1.5-1.2 2.7-2.7 2.7H14z" fill="#fd6020"/>
  <path d="M29.4 9.1c1 0 1.6.5 1.6 1.4.1.7-.4 1.3-1 1.4l1.4 2h-1.1L29.1 12H29v1.9h-.9V9.1h1.3zm-.4 2.2h.3c.6 0 .8-.3.8-.8 0-.4-.3-.7-.8-.7H29v1.5zm-4 2.6h2.5v-.8h-1.6v-1.3h1.6V11h-1.6V9.9h1.6v-.8H25v4.8zm-2.6-1.6l-1.2-3.2h-.9l1.9 4.9h.5l1.9-4.9h-.9l-1.3 3.2zm-10.6-.8c0 1.3 1 2.5 2.4 2.5.4 0 .8-.1 1.1-.3v-1.1c-.3.3-.6.5-1 .5-.8 0-1.5-.6-1.5-1.5v-.1c-.1-.9.6-1.6 1.5-1.7.4 0 .8.2 1.1.5v-.9c-.3-.2-.7-.3-1.1-.3-1.5-.1-2.5 1-2.5 2.4zm-1.6-.6c-.5-.2-.7-.3-.7-.6.1-.3.3-.6.6-.5.3 0 .5.2.7.4l.5-.6c-.4-.4-.8-.6-1.3-.6-.7-.1-1.4.5-1.4 1.3v.1c0 .6.3 1 1.1 1.3l.6.3c.2.1.3.3.3.5 0 .4-.3.7-.6.7h-.1c-.4 0-.8-.3-.9-.6l-.6.4c.3.6.9.9 1.6.9.8.1 1.5-.6 1.6-1.5v-.2c-.1-.5-.4-.8-1.4-1.3zm-3.1 3H8V9.1h-.9v4.8zM3 9.1h1.6c1.3.1 2.2 1.1 2.2 2.4 0 .7-.3 1.3-.8 1.8-.5.4-1 .6-1.6.5H3V9.1zm1.1 4c.5 0 .9-.1 1.3-.4.3-.3.5-.8.5-1.2 0-.4-.2-.9-.5-1.2-.4-.3-.8-.4-1.3-.4h-.2v3.2h.2z" fill-rule="evenodd" clip-rule="evenodd"/>
  <path d="M17.9 9c-1.3 0-2.4 1.1-2.4 2.5 0 1.3 1 2.5 2.4 2.5 1.4.1 2.4-1.1 2.5-2.5 0-1.4-1.1-2.5-2.5-2.5z" fill-rule="evenodd" clip-rule="evenodd" fill="#fd6020"/>
</svg>
