<svg xmlns="http://www.w3.org/2000/svg" viewBox="0 0 34 24">
  <path d="M3.6 23.5c-1.7 0-3.1-1.4-3.1-3.2V3.7C.5 2 1.9.5 3.6.5h26.8c1.7 0 3.1 1.4 3.1 3.2v16.7c0 1.7-1.4 3.2-3.1 3.2H3.6z" fill="#fff"/>
  <path d="M30.4 1C31.8 1 33 2.2 33 3.7v16.7c0 1.5-1.2 2.7-2.6 2.7H3.6C2.2 23 1 21.8 1 20.3V3.7C1 2.2 2.2 1 3.6 1h26.8m0-1H3.6C1.6 0 0 1.6 0 3.7v16.7c0 2 1.6 3.7 3.6 3.7h26.8c2 0 3.6-1.6 3.6-3.7V3.7C34 1.6 32.4 0 30.4 0z" fill="#d9d9d9"/>
  <path d="M17.2 16.8c-1.2 1-2.7 1.6-4.4 1.6-3.7 0-6.8-3-6.8-6.7S9 5 12.8 5c1.7 0 3.2.6 4.4 1.6 1.2-1 2.7-1.6 4.4-1.6 3.7 0 6.8 3 6.8 6.7s-3 6.7-6.8 6.7c-1.7 0-3.2-.6-4.4-1.6z" fill-rule="evenodd" clip-rule="evenodd" fill="#ed0006"/>
  <path d="M17.2 16.8c1.5-1.2 2.4-3.1 2.4-5.1 0-2-.9-3.9-2.4-5.1 1.2-1 2.7-1.6 4.4-1.6 3.7 0 6.8 3 6.8 6.7s-3 6.7-6.8 6.7c-1.7 0-3.2-.6-4.4-1.6z" fill-rule="evenodd" clip-rule="evenodd" fill="#f9a000"/>
  <path d="M17.2 16.8c1.5-1.2 2.4-3.1 2.4-5.1 0-2-.9-3.9-2.4-5.1-1.5 1.2-2.4 3.1-2.4 5.1 0 2.1.9 3.9 2.4 5.1z" fill-rule="evenodd" clip-rule="evenodd" fill="#ff5e00"/>
</svg>
