<svg xmlns="http://www.w3.org/2000/svg" viewBox="0 0 34 24">
  <path d="M3.6 23.5c-1.7 0-3.1-1.4-3.1-3.2V3.7C.5 2 1.9.5 3.6.5h26.8c1.7 0 3.1 1.4 3.1 3.2v16.7c0 1.7-1.4 3.2-3.1 3.2H3.6z" fill="#fff"/>
  <path d="M30.4 1C31.8 1 33 2.2 33 3.7v16.7c0 1.5-1.2 2.7-2.6 2.7H3.6C2.2 23 1 21.8 1 20.3V3.7C1 2.2 2.2 1 3.6 1h26.8m0-1H3.6C1.6 0 0 1.6 0 3.7v16.7c0 2 1.6 3.7 3.6 3.7h26.8c2 0 3.6-1.6 3.6-3.7V3.7C34 1.6 32.4 0 30.4 0z" fill="#d9d9d9"/>
  <path d="M10.8 15.9H8.7L7.1 9.8c0-.3-.2-.5-.4-.6-.6-.3-1.2-.6-1.9-.7v-.2h3.3c.5 0 .8.3.9.7l.8 4.4 2.1-5.1h2l-3.1 7.6zm4.2 0h-2l1.6-7.6h1.9L15 15.9zm4.1-5.5c.1-.4.4-.6.8-.6.6-.1 1.3.1 1.9.3l.3-1.6c-.6-.2-1.2-.4-1.8-.4-1.9 0-3.3 1.1-3.3 2.5 0 1.1 1 1.7 1.7 2 .7.3 1 .6 1 .9 0 .5-.6.8-1.1.8-.7 0-1.4-.2-2-.5l-.3 1.6c.7.3 1.4.4 2.1.4 2.1.1 3.4-1 3.4-2.6 0-1.8-2.7-1.9-2.7-2.8zm9.5 5.5l-1.5-7.6h-1.7c-.3 0-.7.2-.8.6l-2.9 7h2l.4-1.1h2.5l.2 1.1h1.8zm-2.9-5.6l.6 2.9h-1.6l1-2.9z" fill-rule="evenodd" clip-rule="evenodd" fill="#172b85"/>
</svg>
